<svg xmlns="http://www.w3.org/2000/svg" xmlns:xlink="http://www.w3.org/1999/xlink" xmlns:s="https://github.com/nturley/netlistsvg" width="268" height="301">
  <style>svg {
    stroke: #000;
    fill: none;
  }
  text {
    fill: #000;
    stroke: none;
    font-size: 10px;
    font-weight: bold;
    font-family: "Courier New", monospace;
  }
  .nodelabel {
    text-anchor: middle;
  }
  .inputPortLabel {
    text-anchor: end;
  }
  .splitjoinBody {
    fill: #000;
  }
  .symbol {
    stroke-linejoin: round;
    stroke-linecap: round;
    stroke-width: 2;
  }
  .detail {
    stroke-linejoin: round;
    stroke-linecap: round;
    fill: #000;
  }</style>
  <g s:type="capacitor_v" s:width="30" s:height="50" transform="translate(226,189)" id="cell_C1">
    <s:alias val="c_v"/>
    <text x="25" y="10" s:attribute="ref" class="cell_C1">C1</text>
    <path d="M0,20 H30 M0,30 H30" class="symbol cell_C1"/>
    <path d="M15,0 V20 M15,30 V50" class="connect cell_C1"/>
    <g s:x="15" s:y="0" s:pid="A" s:position="top"/>
    <g s:x="15" s:y="50" s:pid="B" s:position="bottom"/>
  </g>
  <g s:type="capacitor_h" s:width="50" s:height="30" transform="translate(71,102)" id="cell_C2">
    <s:alias val="c_h"/>
    <text x="35" y="10" s:attribute="ref" class="cell_C2">C2</text>
    <path d="M20,0 V30 M30,0 V30" class="symbol cell_C2"/>
    <path d="M0,15 H20 M30,15 H50" class="connect cell_C2"/>
    <g s:x="0" s:y="15" s:pid="A" s:position="left"/>
    <g s:x="50" s:y="15" s:pid="B" s:position="right"/>
  </g>
  <g s:type="transistor_npn" s:width="32" s:height="32" transform="translate(163,137)" id="cell_Q">
    <s:alias val="q_npn"/>
    <text x="35" y="20" s:attribute="ref" class="cell_Q">Q</text>
    <circle r="16" cx="16" cy="16" class="symbol cell_Q"/>
    <path d="M0,16 H12 M12,6 V26" class="detail cell_Q"/>
    <path d="m12,10 11,-8" class="detail cell_Q"/>
    <path d="m12,21 11,8" class="detail cell_Q"/>
    <path d="m23,29 -6,-1 3,-5 z" style="fill:#000000" class="cell_Q"/>
    <g s:x="22" s:y="2" s:pid="C" s:position="top"/>
    <g s:x="0" s:y="16" s:pid="B" s:position="left"/>
    <g s:x="23" s:y="29" s:pid="E" s:position="bottom"/>
  </g>
  <g s:type="resistor_v" s:width="10" s:height="50" transform="translate(180,47)" id="cell_R1">
    <s:alias val="r_v"/>
    <text x="15" y="25" s:attribute="ref" class="cell_R1">R1</text>
    <path d="M0,10 V40 H10 V10 Z" class="symbol cell_R1"/>
    <path d="M5,0 V10 M5,40 V50" class="connect cell_R1"/>
    <g s:x="5" s:y="0" s:pid="A" s:position="top"/>
    <g s:x="5" s:y="50" s:pid="B" s:position="bottom"/>
  </g>
  <g s:type="resistor_v" s:width="10" s:height="50" transform="translate(181,189)" id="cell_R2">
    <s:alias val="r_v"/>
    <text x="15" y="25" s:attribute="ref" class="cell_R2">R2</text>
    <path d="M0,10 V40 H10 V10 Z" class="symbol cell_R2"/>
    <path d="M5,0 V10 M5,40 V50" class="connect cell_R2"/>
    <g s:x="5" s:y="0" s:pid="A" s:position="top"/>
    <g s:x="5" s:y="50" s:pid="B" s:position="bottom"/>
  </g>
  <g s:type="resistor_v" s:width="10" s:height="50" transform="translate(126,47)" id="cell_R3">
    <s:alias val="r_v"/>
    <text x="15" y="25" s:attribute="ref" class="cell_R3">R3</text>
    <path d="M0,10 V40 H10 V10 Z" class="symbol cell_R3"/>
    <path d="M5,0 V10 M5,40 V50" class="connect cell_R3"/>
    <g s:x="5" s:y="0" s:pid="A" s:position="top"/>
    <g s:x="5" s:y="50" s:pid="B" s:position="bottom"/>
  </g>
  <g s:type="resistor_v" s:width="10" s:height="50" transform="translate(126,163)" id="cell_R4">
    <s:alias val="r_v"/>
    <text x="15" y="25" s:attribute="ref" class="cell_R4">R4</text>
    <path d="M0,10 V40 H10 V10 Z" class="symbol cell_R4"/>
    <path d="M5,0 V10 M5,40 V50" class="connect cell_R4"/>
    <g s:x="5" s:y="0" s:pid="A" s:position="top"/>
    <g s:x="5" s:y="50" s:pid="B" s:position="bottom"/>
  </g>
  <g s:type="gnd" s:width="20" s:height="30" transform="translate(176,259)" id="cell_gnd83">
    <s:alias val="gnd"/>
    <path d="M0,0 H20 M3,5 H17 M7,10 H13 M10,0 V-15" class="cell_gnd83"/>
    <g s:x="10" s:y="-15" s:pid="A" s:position="top"/>
  </g>
  <g s:type="gnd" s:width="20" s:height="30" transform="translate(231,259)" id="cell_gnd85">
    <s:alias val="gnd"/>
    <path d="M0,0 H20 M3,5 H17 M7,10 H13 M10,0 V-15" class="cell_gnd85"/>
    <g s:x="10" s:y="-15" s:pid="A" s:position="top"/>
  </g>
  <g s:type="gnd" s:width="20" s:height="30" transform="translate(121,233)" id="cell_gnd89">
    <s:alias val="gnd"/>
    <path d="M0,0 H20 M3,5 H17 M7,10 H13 M10,0 V-15" class="cell_gnd89"/>
    <g s:x="10" s:y="-15" s:pid="A" s:position="top"/>
  </g>
  <g s:type="vcc" s:width="20" s:height="30" transform="translate(175,12)" id="cell_vcc80">
    <s:alias val="vcc"/>
    <text x="10" y="-4" class="nodelabel cell_vcc80" s:attribute="name">VCC</text>
    <path d="M0,0 H20 L10,15 Z M10,15 V30" class="cell_vcc80"/>
    <g s:x="10" s:y="30" s:pid="A" s:position="bottom"/>
  </g>
  <g s:type="vcc" s:width="20" s:height="30" transform="translate(121,12)" id="cell_vcc86">
    <s:alias val="vcc"/>
    <text x="10" y="-4" class="nodelabel cell_vcc86" s:attribute="name">VCC</text>
    <path d="M0,0 H20 L10,15 Z M10,15 V30" class="cell_vcc86"/>
    <g s:x="10" s:y="30" s:pid="A" s:position="bottom"/>
  </g>
  <g s:type="inputExt" s:width="30" s:height="20" transform="translate(12,107)" id="cell_vin">
    <text x="15" y="-4" class="nodelabel cell_vin" s:attribute="ref">vin</text>
    <s:alias val="$_inputExt_"/>
    <path d="M0,0 V20 H15 L30,10 15,0 Z" class="cell_vin"/>
    <g s:x="30" s:y="10" s:pid="Y" s:position="right"/>
  </g>
  <g s:type="outputExt" s:width="30" s:height="20" transform="translate(195,112)" id="cell_vout">
    <text x="15" y="-4" class="nodelabel cell_vout" s:attribute="ref">vout</text>
    <s:alias val="$_outputExt_"/>
    <path d="M30,0 V20 H15 L0,10 15,0 Z" class="cell_vout"/>
    <g s:x="0" s:y="10" s:pid="A" s:position="left"/>
  </g>
  <line x1="186" x2="186" y1="166" y2="179" class="net_2"/>
  <line x1="186" x2="241" y1="179" y2="179" class="net_2"/>
  <circle cx="186" cy="179" r="2" style="fill:#000" class="net_2"/>
  <line x1="241" x2="241" y1="179" y2="189" class="net_2"/>
  <line x1="186" x2="186" y1="166" y2="189" class="net_3"/>
  <line x1="185" x2="185" y1="97" y2="122" class="net_6"/>
  <circle cx="185" cy="122" r="2" style="fill:#000" class="net_6"/>
  <line x1="185" x2="195" y1="122" y2="122" class="net_6"/>
  <line x1="195" x2="185" y1="122" y2="122" class="net_7"/>
  <circle cx="185" cy="122" r="2" style="fill:#000" class="net_7"/>
  <line x1="185" x2="185" y1="122" y2="139" class="net_7"/>
  <line x1="185" x2="185" y1="42" y2="47" class="net_7"/>
  <line x1="131" x2="131" y1="42" y2="47" class="net_4"/>
  <line x1="131" x2="131" y1="97" y2="117" class="net_4"/>
  <circle cx="131" cy="117" r="2" style="fill:#000" class="net_4"/>
  <line x1="131" x2="121" y1="117" y2="117" class="net_4"/>
  <line x1="131" x2="131" y1="97" y2="107" class="net_10"/>
  <line x1="131" x2="141" y1="107" y2="107" class="net_10"/>
  <line x1="141" x2="141" y1="107" y2="153" class="net_10"/>
  <circle cx="131" cy="107" r="2" style="fill:#000" class="net_10"/>
  <circle cx="141" cy="153" r="2" style="fill:#000" class="net_10"/>
  <line x1="141" x2="163" y1="153" y2="153" class="net_10"/>
  <line x1="121" x2="131" y1="117" y2="117" class="net_8"/>
  <circle cx="131" cy="117" r="2" style="fill:#000" class="net_8"/>
  <line x1="131" x2="131" y1="117" y2="163" class="net_8"/>
  <line x1="163" x2="141" y1="153" y2="153" class="net_12"/>
  <line x1="141" x2="141" y1="153" y2="153" class="net_12"/>
  <line x1="141" x2="131" y1="153" y2="153" class="net_12"/>
  <circle cx="131" cy="153" r="2" style="fill:#000" class="net_12"/>
  <circle cx="141" cy="153" r="2" style="fill:#000" class="net_12"/>
  <line x1="131" x2="131" y1="153" y2="163" class="net_12"/>
  <line x1="186" x2="186" y1="239" y2="244" class="net_5"/>
  <line x1="241" x2="241" y1="239" y2="244" class="net_5"/>
  <line x1="131" x2="131" y1="213" y2="218" class="net_9"/>
  <line x1="71" x2="61" y1="117" y2="117" class="net_70"/>
  <line x1="61" x2="61" y1="117" y2="117" class="net_70"/>
  <line x1="61" x2="42" y1="117" y2="117" class="net_70"/>
</svg>
