<svg xmlns="http://www.w3.org/2000/svg" xmlns:xlink="http://www.w3.org/1999/xlink" xmlns:s="https://github.com/nturley/netlistsvg" width="704.9999980926514" height="324.49999928474426">
  <style>svg {
    stroke:#000;
    fill:none;
  }
  text {
    fill:#000;
    stroke:none;
    font-size:10px;
    font-weight: bold;
    font-family: "Courier New", monospace;
  }
  .nodelabel {
    text-anchor: middle;
  }
  .inputPortLabel {
    text-anchor: end;
  }
  .splitjoinBody {
    fill:#000;
  }</style>
  <g s:type="inputExt" transform="translate(50,183.99999952316284)" s:width="30" s:height="20">
    <text x="15" y="-4" class="nodelabel">clk100</text>
    <s:alias val="$_inputExt_"/>
    <path d="M0,0 L0,20 L15,20 L30,10 L15,0 Z"/>
    <g s:x="28" s:y="10" s:pid="Y"/>
  </g>
  <g s:type="outputExt" transform="translate(579.9999980926514,50)" s:width="30" s:height="20">
    <text x="15" y="-4" class="nodelabel">clk40</text>
    <s:alias val="$_outputExt_"/>
    <path d="M30,0 L30,20 L15,20 L0,10 L15,0 Z"/>
    <g s:x="0" s:y="10" s:pid="A"/>
  </g>
  <g s:type="outputExt" transform="translate(579.9999980926514,254.49999928474426)" s:width="30" s:height="20">
    <text x="15" y="-4" class="nodelabel">clk125</text>
    <s:alias val="$_outputExt_"/>
    <path d="M30,0 L30,20 L15,20 L0,10 L15,0 Z"/>
    <g s:x="0" s:y="10" s:pid="A"/>
  </g>
  <g s:type="generic" transform="translate(158.99999952316284,50)" s:width="30" s:height="40">
    <text x="15" y="-4" class="nodelabel">PLL</text>
    <rect width="30" height="80"/>
    <g transform="translate(0,10)" s:x="0" s:y="10" s:pid="in0">
      <text x="-3" y="-4" class="inputPortLabel">clkin</text>
    </g>
    <g transform="translate(30,10)" s:x="30" s:y="10" s:pid="out0">
      <text x="5" y="-4" style="fill:#000; stroke:none">clk40</text>
    </g>
    <g transform="translate(30,30)" s:x="30" s:y="10" s:pid="out0">
      <text x="5" y="-4" style="fill:#000; stroke:none">clk200</text>
    </g>
    <g transform="translate(30,50)" s:x="30" s:y="10" s:pid="out0">
      <text x="5" y="-4" style="fill:#000; stroke:none">clk125</text>
    </g>
    <g transform="translate(30,70)" s:x="30" s:y="10" s:pid="out0">
      <text x="5" y="-4" style="fill:#000; stroke:none">locked</text>
    </g>
  </g>
  <g s:type="generic" transform="translate(579.9999980926514,158.49999976158142)" s:width="30" s:height="40">
    <text x="15" y="-4" class="nodelabel">MIG</text>
    <rect width="30" height="60"/>
    <g transform="translate(0,10)" s:x="0" s:y="10" s:pid="in0">
      <text x="-3" y="-4" class="inputPortLabel">clk_ref</text>
    </g>
    <g transform="translate(0,30)" s:x="0" s:y="10" s:pid="in0">
      <text x="-3" y="-4" class="inputPortLabel">clk_sys</text>
    </g>
    <g transform="translate(0,50)" s:x="0" s:y="10" s:pid="in0">
      <text x="-3" y="-4" class="inputPortLabel">reset</text>
    </g>
  </g>
  <g s:type="generic" transform="translate(319.9999990463257,183.99999952316284)" s:width="30" s:height="40">
    <text x="15" y="-4" class="nodelabel">counter</text>
    <rect width="30" height="40"/>
    <g transform="translate(0,10)" s:x="0" s:y="10" s:pid="in0">
      <text x="-3" y="-4" class="inputPortLabel">clk</text>
    </g>
    <g transform="translate(0,30)" s:x="0" s:y="10" s:pid="in0">
      <text x="-3" y="-4" class="inputPortLabel">start</text>
    </g>
    <g transform="translate(30,10)" s:x="30" s:y="10" s:pid="out0">
      <text x="5" y="-4" style="fill:#000; stroke:none">elapsed</text>
    </g>
  </g>
  <g s:type="generic" transform="translate(444.9999985694885,110)" s:width="30" s:height="40">
    <text x="15" y="-4" class="nodelabel">sync</text>
    <rect width="30" height="40"/>
    <g transform="translate(0,10)" s:x="0" s:y="10" s:pid="in0">
      <text x="-3" y="-4" class="inputPortLabel">clk</text>
    </g>
    <g transform="translate(0,30)" s:x="0" s:y="10" s:pid="in0">
      <text x="-3" y="-4" class="inputPortLabel">in</text>
    </g>
    <g transform="translate(30,10)" s:x="30" s:y="10" s:pid="out0">
      <text x="5" y="-4" style="fill:#000; stroke:none">out</text>
    </g>
  </g>
  <g s:type="generic" transform="translate(567.9999980926514,90)" s:width="30" s:height="40">
    <text x="15" y="-4" class="nodelabel">businterface</text>
    <rect width="30" height="40"/>
    <g transform="translate(0,10)" s:x="0" s:y="10" s:pid="in0">
      <text x="-3" y="-4" class="inputPortLabel">clk</text>
    </g>
    <g transform="translate(0,30)" s:x="0" s:y="10" s:pid="in0">
      <text x="-3" y="-4" class="inputPortLabel">reset</text>
    </g>
  </g>
  <line x1="79" y1="194.49999952316284" x2="111.99999976158142" y2="194.49999952316284"/>
  <line x1="111.99999976158142" y1="194.49999952316284" x2="111.99999976158142" y2="60.5"/>
  <circle cx="111.99999976158142" cy="194.49999952316284" r="2" style="fill:#000"/>
  <line x1="111.99999976158142" y1="60.5" x2="158.99999952316284" y2="60.5"/>
  <line x1="79" y1="194.49999952316284" x2="252.99999928474426" y2="194.49999952316284"/>
  <line x1="252.99999928474426" y1="194.49999952316284" x2="252.99999928474426" y2="242.99999928474426"/>
  <line x1="252.99999928474426" y1="242.99999928474426" x2="510.99999833106995" y2="242.99999928474426"/>
  <line x1="510.99999833106995" y1="242.99999928474426" x2="510.99999833106995" y2="188.99999976158142"/>
  <circle cx="252.99999928474426" cy="194.49999952316284" r="2" style="fill:#000"/>
  <line x1="510.99999833106995" y1="188.99999976158142" x2="579.9999980926514" y2="188.99999976158142"/>
  <line x1="79" y1="194.49999952316284" x2="319.9999990463257" y2="194.49999952316284"/>
  <line x1="189.99999952316284" y1="60.5" x2="579.9999980926514" y2="60.5"/>
  <line x1="189.99999952316284" y1="60.5" x2="409.9999988079071" y2="60.5"/>
  <line x1="409.9999988079071" y1="60.5" x2="409.9999988079071" y2="120.5"/>
  <circle cx="409.9999988079071" cy="60.5" r="2" style="fill:#000"/>
  <line x1="409.9999988079071" y1="120.5" x2="444.9999985694885" y2="120.5"/>
  <line x1="189.99999952316284" y1="60.5" x2="510.99999833106995" y2="60.5"/>
  <line x1="510.99999833106995" y1="60.5" x2="510.99999833106995" y2="100.5"/>
  <circle cx="510.99999833106995" cy="60.5" r="2" style="fill:#000"/>
  <line x1="510.99999833106995" y1="100.5" x2="567.9999980926514" y2="100.5"/>
  <line x1="189.99999952316284" y1="80.5" x2="272.99999928474426" y2="80.5"/>
  <line x1="272.99999928474426" y1="80.5" x2="272.99999928474426" y2="168.99999976158142"/>
  <line x1="272.99999928474426" y1="168.99999976158142" x2="579.9999980926514" y2="168.99999976158142"/>
  <line x1="189.99999952316284" y1="100.5" x2="242.99999928474426" y2="100.5"/>
  <line x1="242.99999928474426" y1="100.5" x2="242.99999928474426" y2="264.99999928474426"/>
  <line x1="242.99999928474426" y1="264.99999928474426" x2="579.9999980926514" y2="264.99999928474426"/>
  <line x1="189.99999952316284" y1="120.5" x2="262.99999928474426" y2="120.5"/>
  <line x1="262.99999928474426" y1="120.5" x2="262.99999928474426" y2="214.49999952316284"/>
  <line x1="262.99999928474426" y1="214.49999952316284" x2="319.9999990463257" y2="214.49999952316284"/>
  <line x1="350.9999990463257" y1="194.49999952316284" x2="409.9999988079071" y2="194.49999952316284"/>
  <line x1="409.9999988079071" y1="194.49999952316284" x2="409.9999988079071" y2="253.99999928474426"/>
  <line x1="409.9999988079071" y1="253.99999928474426" x2="520.99999833107" y2="253.99999928474426"/>
  <line x1="520.99999833107" y1="253.99999928474426" x2="520.99999833107" y2="208.99999976158142"/>
  <circle cx="409.9999988079071" cy="194.49999952316284" r="2" style="fill:#000"/>
  <line x1="520.99999833107" y1="208.99999976158142" x2="579.9999980926514" y2="208.99999976158142"/>
  <line x1="350.9999990463257" y1="194.49999952316284" x2="409.9999988079071" y2="194.49999952316284"/>
  <line x1="409.9999988079071" y1="194.49999952316284" x2="409.9999988079071" y2="140.5"/>
  <line x1="409.9999988079071" y1="140.5" x2="444.9999985694885" y2="140.5"/>
  <line x1="475.9999985694885" y1="120.5" x2="567.9999980926514" y2="120.5"/>
</svg>
