<svg xmlns="http://www.w3.org/2000/svg" xmlns:xlink="http://www.w3.org/1999/xlink" xmlns:s="https://github.com/nturley/netlistsvg" width="292" height="260.5">
  <style>svg {
    stroke:#000;
    fill:none;
  }
  text {
    fill:#000;
    stroke:none;
    font-size:10px;
    font-weight: bold;
    font-family: "Courier New", monospace;
  }
  .nodelabel {
    text-anchor: middle;
  }
  .inputPortLabel {
    text-anchor: end;
  }
  .splitjoinBody {
    fill:#000;
  }</style>
  <g s:type="generic" transform="translate(85,22)" s:width="30" s:height="40" id="cell_foo">
    <text x="58" y="-4" class="nodelabel cell_foo" s:attribute="ref">$paramod\submod\c=3'111\d=3'111</text>
    <rect width="116" height="199" s:generic="body" fill="#e9e9e9" rx="4" class="cell_foo"/>
    <g s:type="constant" transform="translate(13,34.5)" s:width="30" s:height="20" id="cell_0000">
      <text x="15" y="-4" class="nodelabel cell_0000" s:attribute="ref">0x0</text>
      <s:alias val="$_constant_"/>
      <rect width="30" height="20" fill="#ffffff" class="cell_0000"/>
      <g s:x="30" s:y="10" s:pid="Y"/>
    </g>
    <g s:type="constant" transform="translate(12,164.5)" s:width="30" s:height="20" id="cell_11111111">
      <text x="15" y="-4" class="nodelabel cell_11111111" s:attribute="ref">0xff</text>
      <s:alias val="$_constant_"/>
      <rect width="30" height="20" fill="#ffffff" class="cell_11111111"/>
      <g s:x="30" s:y="10" s:pid="Y"/>
    </g>
    <g s:type="join" transform="translate(98,14)" s:width="5" s:height="40" id="cell_$join$,2,3,4,5,10,11,12,13,">
      <rect width="5" height="40" class="splitjoinBody" s:generic="body"/>
      <s:alias val="$_join_"/>
      <g s:x="5" s:y="20" s:pid="out"/>
      <g transform="translate(-1,10)" s:x="-1" s:y="10" s:pid="in0">
        <text x="-3" y="-4" class="inputPortLabel">0:3</text>
      </g>
      <g transform="translate(-1,30)" s:x="-1" s:y="10" s:pid="in0">
        <text x="-3" y="-4" class="inputPortLabel">4:7</text>
      </g>
    </g>
    <g s:type="join" transform="translate(98,91)" s:width="5" s:height="40" id="cell_$join$,6,7,8,9,10,11,12,13,">
      <rect width="5" height="40" class="splitjoinBody" s:generic="body"/>
      <s:alias val="$_join_"/>
      <g s:x="5" s:y="20" s:pid="out"/>
      <g transform="translate(-1,10)" s:x="-1" s:y="10" s:pid="in0">
        <text x="-3" y="-4" class="inputPortLabel">0:3</text>
      </g>
      <g transform="translate(-1,30)" s:x="-1" s:y="10" s:pid="in0">
        <text x="-3" y="-4" class="inputPortLabel">4:7</text>
      </g>
    </g>
    <line x1="104" x2="116" y1="34.5" y2="34.5" class="net_2,3,4,5,10,11,12,13"/>
    <line x1="104" x2="116" y1="111.5" y2="111.5" class="net_6,7,8,9,10,11,12,13"/>
    <line x1="42" x2="52" y1="174.5" y2="174.5" class="net_18,19,20,21,22,23,24,25"/>
    <line x1="52" x2="52" y1="174.5" y2="151.5" class="net_18,19,20,21,22,23,24,25"/>
    <circle cx="52" cy="174.5" r="2" style="fill:#000" class="net_18,19,20,21,22,23,24,25"/>
    <line x1="52" x2="116" y1="151.5" y2="151.5" class="net_18,19,20,21,22,23,24,25"/>
    <line x1="42" x2="116" y1="174.5" y2="174.5" class="net_18,19,20,21,22,23,24,25"/>
    <line x1="1" x2="53" y1="13.5" y2="13.5" class="net_2,3,4,5"/>
    <line x1="53" x2="53" y1="13.5" y2="24.5" class="net_2,3,4,5"/>
    <line x1="53" x2="97" y1="24.5" y2="24.5" class="net_2,3,4,5"/>
    <line x1="43" x2="97" y1="44.5" y2="44.5" class="net_10,11,12,13"/>
    <line x1="43" x2="53" y1="44.5" y2="44.5" class="net_10,11,12,13"/>
    <line x1="53" x2="53" y1="44.5" y2="121.5" class="net_10,11,12,13"/>
    <circle cx="53" cy="44.5" r="2" style="fill:#000" class="net_10,11,12,13"/>
    <line x1="53" x2="97" y1="121.5" y2="121.5" class="net_10,11,12,13"/>
    <line x1="1" x2="97" y1="101.5" y2="101.5" class="net_6,7,8,9"/>
    <g transform="translate(-1,13)" s:x="0" s:y="10" s:pid="in0" id="port_foo~a">
      <text x="-3" y="-4" class="inputPortLabel cell_foo">a</text>
    </g>
    <g transform="translate(-1,101)" s:x="0" s:y="10" s:pid="in0" id="port_foo~b">
      <text x="-3" y="-4" class="inputPortLabel cell_foo">b</text>
    </g>
    <g transform="translate(116,34)" s:x="30" s:y="10" s:pid="out0" id="port_foo~y1">
      <text x="5" y="-4" style="fill:#000; stroke:none" class="cell_foo">y1</text>
    </g>
    <g transform="translate(116,111)" s:x="30" s:y="10" s:pid="out0" id="port_foo~y2">
      <text x="5" y="-4" style="fill:#000; stroke:none" class="cell_foo">y2</text>
    </g>
    <g transform="translate(116,151)" s:x="30" s:y="10" s:pid="out0" id="port_foo~y3">
      <text x="5" y="-4" style="fill:#000; stroke:none" class="cell_foo">y3</text>
    </g>
    <g transform="translate(116,174)" s:x="30" s:y="10" s:pid="out0" id="port_foo~y4">
      <text x="5" y="-4" style="fill:#000; stroke:none" class="cell_foo">y4</text>
    </g>
  </g>
  <g s:type="inputExt" transform="translate(12,25.5)" s:width="30" s:height="20" id="cell_a">
    <text x="15" y="-4" class="nodelabel cell_a" s:attribute="ref">a</text>
    <s:alias val="$_inputExt_"/>
    <path d="M0,0 L0,20 L15,20 L30,10 L15,0 Z" fill="#ffffff" class="cell_a"/>
    <g s:x="28" s:y="10" s:pid="Y"/>
  </g>
  <g s:type="inputExt" transform="translate(12,113.5)" s:width="30" s:height="20" id="cell_b">
    <text x="15" y="-4" class="nodelabel cell_b" s:attribute="ref">b</text>
    <s:alias val="$_inputExt_"/>
    <path d="M0,0 L0,20 L15,20 L30,10 L15,0 Z" fill="#ffffff" class="cell_b"/>
    <g s:x="28" s:y="10" s:pid="Y"/>
  </g>
  <g s:type="outputExt" transform="translate(250,33.5)" s:width="30" s:height="20" id="cell_y1">
    <text x="15" y="-4" class="nodelabel cell_y1" s:attribute="ref">y1</text>
    <s:alias val="$_outputExt_"/>
    <path d="M30,0 L30,20 L15,20 L0,10 L15,0 Z" fill="#ffffff" class="cell_y1"/>
    <g s:x="0" s:y="10" s:pid="A"/>
  </g>
  <g s:type="outputExt" transform="translate(250,98.5)" s:width="30" s:height="20" id="cell_y2">
    <text x="15" y="-4" class="nodelabel cell_y2" s:attribute="ref">y2</text>
    <s:alias val="$_outputExt_"/>
    <path d="M30,0 L30,20 L15,20 L0,10 L15,0 Z" fill="#ffffff" class="cell_y2"/>
    <g s:x="0" s:y="10" s:pid="A"/>
  </g>
  <g s:type="outputExt" transform="translate(250,163.5)" s:width="30" s:height="20" id="cell_y3">
    <text x="15" y="-4" class="nodelabel cell_y3" s:attribute="ref">y3</text>
    <s:alias val="$_outputExt_"/>
    <path d="M30,0 L30,20 L15,20 L0,10 L15,0 Z" fill="#ffffff" class="cell_y3"/>
    <g s:x="0" s:y="10" s:pid="A"/>
  </g>
  <g s:type="outputExt" transform="translate(250,228.5)" s:width="30" s:height="20" id="cell_y4">
    <text x="15" y="-4" class="nodelabel cell_y4" s:attribute="ref">y4</text>
    <s:alias val="$_outputExt_"/>
    <path d="M30,0 L30,20 L15,20 L0,10 L15,0 Z" fill="#ffffff" class="cell_y4"/>
    <g s:x="0" s:y="10" s:pid="A"/>
  </g>
  <line x1="40" x2="84" y1="35.5" y2="35.5" class="net_2,3,4,5"/>
  <line x1="40" x2="84" y1="123.5" y2="123.5" class="net_6,7,8,9"/>
  <line x1="202" x2="225" y1="56.5" y2="56.5" class="net_10,11,12,13,14,15,16,17"/>
  <line x1="225" x2="225" y1="56.5" y2="43.5" class="net_10,11,12,13,14,15,16,17"/>
  <line x1="225" x2="250" y1="43.5" y2="43.5" class="net_10,11,12,13,14,15,16,17"/>
  <line x1="202" x2="225" y1="133.5" y2="133.5" class="net_18,19,20,21,22,23,24,25"/>
  <line x1="225" x2="225" y1="133.5" y2="108.5" class="net_18,19,20,21,22,23,24,25"/>
  <line x1="225" x2="250" y1="108.5" y2="108.5" class="net_18,19,20,21,22,23,24,25"/>
  <line x1="202" x2="250" y1="173.5" y2="173.5" class="net_26,27,28,29,30,31,32,33"/>
  <line x1="202" x2="225" y1="196.5" y2="196.5" class="net_34,35,36,37,38,39,40,41"/>
  <line x1="225" x2="225" y1="196.5" y2="238.5" class="net_34,35,36,37,38,39,40,41"/>
  <line x1="225" x2="250" y1="238.5" y2="238.5" class="net_34,35,36,37,38,39,40,41"/>
</svg>
