<svg xmlns="http://www.w3.org/2000/svg" xmlns:xlink="http://www.w3.org/1999/xlink" xmlns:s="https://github.com/nturley/netlistsvg" style="stroke:#000; fill:none; font-size: 10px; font-weight: bold;">
  <g s:type="inputExt" transform="translate(371.9999976158142,189.99999952316284)" s:width="30" s:height="20">
    <text x="15" y="-4" style="fill:#000; text-anchor: middle;stroke:none">clock</text>
    <s:alias val="$_inputExt_"/>
    <path d="M0,0 L0,20 L15,20 L30,10 L15,0 Z"/>
    <g s:x="28" s:y="10" s:pid="Y"/>
  </g>
  <g s:type="inputExt" transform="translate(197.99999904632568,178.99999952316284)" s:width="30" s:height="20">
    <text x="15" y="-4" style="fill:#000; text-anchor: middle;stroke:none">data_in</text>
    <s:alias val="$_inputExt_"/>
    <path d="M0,0 L0,20 L15,20 L30,10 L15,0 Z"/>
    <g s:x="28" s:y="10" s:pid="Y"/>
  </g>
  <g s:type="inputExt" transform="translate(50,516.9999985694885)" s:width="30" s:height="20">
    <text x="15" y="-4" style="fill:#000; text-anchor: middle;stroke:none">up</text>
    <s:alias val="$_inputExt_"/>
    <path d="M0,0 L0,20 L15,20 L30,10 L15,0 Z"/>
    <g s:x="28" s:y="10" s:pid="Y"/>
  </g>
  <g s:type="inputExt" transform="translate(50,378.4999988079071)" s:width="30" s:height="20">
    <text x="15" y="-4" style="fill:#000; text-anchor: middle;stroke:none">down</text>
    <s:alias val="$_inputExt_"/>
    <path d="M0,0 L0,20 L15,20 L30,10 L15,0 Z"/>
    <g s:x="28" s:y="10" s:pid="Y"/>
  </g>
  <g s:type="outputExt" transform="translate(499.9999966621399,516.9999985694885)" s:width="30" s:height="20">
    <text x="15" y="-4" style="fill:#000; text-anchor: middle;stroke:none">carry_out</text>
    <s:alias val="$_outputExt_"/>
    <path d="M30,0 L30,20 L15,20 L0,10 L15,0 Z"/>
    <g s:x="0" s:y="10" s:pid="A"/>
  </g>
  <g s:type="outputExt" transform="translate(499.9999966621399,50)" s:width="30" s:height="20">
    <text x="15" y="-4" style="fill:#000; text-anchor: middle;stroke:none">borrow_out</text>
    <s:alias val="$_outputExt_"/>
    <path d="M30,0 L30,20 L15,20 L0,10 L15,0 Z"/>
    <g s:x="0" s:y="10" s:pid="A"/>
  </g>
  <g s:type="outputExt" transform="translate(499.9999966621399,169.99999952316284)" s:width="30" s:height="20">
    <text x="15" y="-4" style="fill:#000; text-anchor: middle;stroke:none">count_out</text>
    <s:alias val="$_outputExt_"/>
    <path d="M30,0 L30,20 L15,20 L0,10 L15,0 Z"/>
    <g s:x="0" s:y="10" s:pid="A"/>
  </g>
  <g s:type="outputExt" transform="translate(499.9999966621399,252.49999904632568)" s:width="30" s:height="20">
    <text x="15" y="-4" style="fill:#000; text-anchor: middle;stroke:none">parity_out</text>
    <s:alias val="$_outputExt_"/>
    <path d="M30,0 L30,20 L15,20 L0,10 L15,0 Z"/>
    <g s:x="0" s:y="10" s:pid="A"/>
  </g>
  <g s:type="add" transform="translate(132.33333285649616,293.4999988079071)" s:width="25" s:height="25">
    <s:alias val="$add"/>
    <circle r="12.5" cx="12.5" cy="12.5"/>
    <line x1="7.5" x2="17.5" y1="12.5" y2="12.5"/>
    <line x1="12.5" x2="12.5" y1="7.5" y2="17.5"/>
    <g s:x="3" s:y="5" s:pid="A"/>
    <g s:x="3" s:y="20" s:pid="B"/>
    <g s:x="25" s:y="12.5" s:pid="Y"/>
  </g>
  <g s:type="generic" transform="translate(370.3333309491475,516.9999985694885)" s:width="30" s:height="40">
    <text x="15" y="-4" style="fill:#000; text-anchor: middle; stroke:none" height="40">$and</text>
    <rect width="30" height="40"/>
    <g transform="translate(0,10)" s:x="0" s:y="10" s:pid="in0">
      <text x="-3" y="-4" style="fill:#000; text-anchor: end; stroke:none">A</text>
    </g>
    <g transform="translate(0,30)" s:x="0" s:y="10" s:pid="in0">
      <text x="-3" y="-4" style="fill:#000; text-anchor: end; stroke:none">B</text>
    </g>
    <g transform="translate(30,10)" s:x="30" s:y="10" s:pid="out0">
      <text x="5" y="-4" style="fill:#000; stroke:none">Y</text>
    </g>
  </g>
  <g s:type="generic" transform="translate(370.3333309491475,50)" s:width="30" s:height="40">
    <text x="15" y="-4" style="fill:#000; text-anchor: middle; stroke:none" height="40">$and</text>
    <rect width="30" height="40"/>
    <g transform="translate(0,10)" s:x="0" s:y="10" s:pid="in0">
      <text x="-3" y="-4" style="fill:#000; text-anchor: end; stroke:none">A</text>
    </g>
    <g transform="translate(0,30)" s:x="0" s:y="10" s:pid="in0">
      <text x="-3" y="-4" style="fill:#000; text-anchor: end; stroke:none">B</text>
    </g>
    <g transform="translate(30,10)" s:x="30" s:y="10" s:pid="out0">
      <text x="5" y="-4" style="fill:#000; stroke:none">Y</text>
    </g>
  </g>
  <g s:type="dff" transform="translate(440.99999713897705,169.99999952316284)" s:width="30" s:height="40">
    <s:alias val="$dff"/>
    <rect width="30" height="40" x="0" y="0"/>
    <path d="M0,35 L5,30 L0,25"/>
    <g s:x="30" s:y="10" s:pid="Q"/>
    <g s:x="0" s:y="30" s:pid="CLK"/>
    <g s:x="0" s:y="10" s:pid="D"/>
  </g>
  <g s:type="dff" transform="translate(440.99999713897705,516.9999985694885)" s:width="30" s:height="40">
    <s:alias val="$dff"/>
    <rect width="30" height="40" x="0" y="0"/>
    <path d="M0,35 L5,30 L0,25"/>
    <g s:x="30" s:y="10" s:pid="Q"/>
    <g s:x="0" s:y="30" s:pid="CLK"/>
    <g s:x="0" s:y="10" s:pid="D"/>
  </g>
  <g s:type="dff" transform="translate(440.99999713897705,50)" s:width="30" s:height="40">
    <s:alias val="$dff"/>
    <rect width="30" height="40" x="0" y="0"/>
    <path d="M0,35 L5,30 L0,25"/>
    <g s:x="30" s:y="10" s:pid="Q"/>
    <g s:x="0" s:y="30" s:pid="CLK"/>
    <g s:x="0" s:y="10" s:pid="D"/>
  </g>
  <g s:type="dff" transform="translate(440.99999713897705,252.49999904632568)" s:width="30" s:height="40">
    <s:alias val="$dff"/>
    <rect width="30" height="40" x="0" y="0"/>
    <path d="M0,35 L5,30 L0,25"/>
    <g s:x="30" s:y="10" s:pid="Q"/>
    <g s:x="0" s:y="30" s:pid="CLK"/>
    <g s:x="0" s:y="10" s:pid="D"/>
  </g>
  <g s:type="mux" transform="translate(309.99999809265137,242.49999904632568)" s:width="20" s:height="40">
    <s:alias val="$pmux"/>
    <s:alias val="$mux"/>
    <path d="M0,0 L20,10 L20,30 L0,40 Z"/>
    <g s:x="0" s:y="10" s:pid="A"/>
    <g s:x="0" s:y="30" s:pid="B"/>
    <g s:x="10" s:y="35" s:pid="S"/>
    <g s:x="20" s:y="20" s:pid="Y"/>
  </g>
  <g s:type="eq" transform="translate(199.66666571299234,393.4999988079071)" s:width="25" s:height="25">
    <s:alias val="$eq"/>
    <circle r="12.5" cx="12.5" cy="12.5"/>
    <line x1="7.5" x2="17.5" y1="10" y2="10"/>
    <line x1="7.5" x2="17.5" y1="15" y2="15"/>
    <g s:x="3" s:y="5" s:pid="A"/>
    <g s:x="3" s:y="20" s:pid="B"/>
    <g s:x="25" s:y="12.5" s:pid="Y"/>
  </g>
  <g s:type="eq" transform="translate(199.66666571299234,438.4999988079071)" s:width="25" s:height="25">
    <s:alias val="$eq"/>
    <circle r="12.5" cx="12.5" cy="12.5"/>
    <line x1="7.5" x2="17.5" y1="10" y2="10"/>
    <line x1="7.5" x2="17.5" y1="15" y2="15"/>
    <g s:x="3" s:y="5" s:pid="A"/>
    <g s:x="3" s:y="20" s:pid="B"/>
    <g s:x="25" s:y="12.5" s:pid="Y"/>
  </g>
  <g s:type="eq" transform="translate(199.66666571299234,483.4999988079071)" s:width="25" s:height="25">
    <s:alias val="$eq"/>
    <circle r="12.5" cx="12.5" cy="12.5"/>
    <line x1="7.5" x2="17.5" y1="10" y2="10"/>
    <line x1="7.5" x2="17.5" y1="15" y2="15"/>
    <g s:x="3" s:y="5" s:pid="A"/>
    <g s:x="3" s:y="20" s:pid="B"/>
    <g s:x="25" s:y="12.5" s:pid="Y"/>
  </g>
  <g s:type="reduce_xor" transform="translate(368.9999976158142,249.99999904632568)" s:width="33" s:height="25">
    <s:alias val="$reduce_xor"/>
    <path d="M3,0 A30 25 0 0 1 3,25 A30 25 0 0 0 33,12.5 A30 25 0 0 0 3,0"/>
    <path d="M0,0 A30 25 0 0 1 0,25"/>
    <g s:x="33" s:y="12.5" s:pid="Y"/>
    <g s:x="3" s:y="12.5" s:pid="A"/>
  </g>
  <g s:type="sub" transform="translate(132.33333285649616,77.5)" s:width="25" s:height="25">
    <s:alias val="$sub"/>
    <circle r="12.5" cx="12.5" cy="12.5"/>
    <line x1="7.5" x2="17.5" y1="12.5" y2="12.5"/>
    <g s:x="3" s:y="5" s:pid="A"/>
    <g s:x="3" s:y="20" s:pid="B"/>
    <g s:x="25" s:y="12.5" s:pid="Y"/>
  </g>
  <g s:type="constant" transform="translate(50,476.9999985694885)" s:width="30" s:height="20">
    <text x="15" y="-4" style="fill:#000; text-anchor: middle;stroke:none">11</text>
    <s:alias val="$_constant_"/>
    <rect width="30" height="20"/>
    <g s:x="30" s:y="10" s:pid="Y"/>
  </g>
  <g s:type="constant" transform="translate(128.99999952316284,338.4999988079071)" s:width="30" s:height="20">
    <text x="15" y="-4" style="fill:#000; text-anchor: middle;stroke:none">10</text>
    <s:alias val="$_constant_"/>
    <rect width="30" height="20"/>
    <g s:x="30" s:y="10" s:pid="Y"/>
  </g>
  <g s:type="constant" transform="translate(128.99999952316284,448.4999988079071)" s:width="30" s:height="20">
    <text x="15" y="-4" style="fill:#000; text-anchor: middle;stroke:none">01</text>
    <s:alias val="$_constant_"/>
    <rect width="30" height="20"/>
    <g s:x="30" s:y="10" s:pid="Y"/>
  </g>
  <g s:type="constant" transform="translate(128.99999952316284,493.4999988079071)" s:width="30" s:height="20">
    <text x="15" y="-4" style="fill:#000; text-anchor: middle;stroke:none">00</text>
    <s:alias val="$_constant_"/>
    <rect width="30" height="20"/>
    <g s:x="30" s:y="10" s:pid="Y"/>
  </g>
  <g s:type="constant" transform="translate(50,87.5)" s:width="30" s:height="20">
    <text x="15" y="-4" style="fill:#000; text-anchor: middle;stroke:none">101</text>
    <s:alias val="$_constant_"/>
    <rect width="30" height="20"/>
    <g s:x="30" s:y="10" s:pid="Y"/>
  </g>
  <g s:type="join" transform="translate(265.9999985694885,138.99999952316284)" s:width="4" s:height="40">
    <rect width="5" height="60" style="fill:#000;"/>
    <s:alias val="$_join_"/>
    <g s:x="5" s:y="20" s:pid="out"/>
    <g transform="translate(0,10)" s:x="0" s:y="10" s:pid="in0">
      <text x="-3" y="-4" style="fill:#000; text-anchor: end;stroke:none">0:8</text>
    </g>
    <g transform="translate(0,30)" s:x="0" s:y="10" s:pid="in0">
      <text x="-3" y="-4" style="fill:#000; text-anchor: end;stroke:none">9:17</text>
    </g>
    <g transform="translate(0,50)" s:x="0" s:y="10" s:pid="in0">
      <text x="-3" y="-4" style="fill:#000; text-anchor: end;stroke:none">18:26</text>
    </g>
  </g>
  <g s:type="join" transform="translate(265.9999985694885,420.9999988079071)" s:width="4" s:height="40">
    <rect width="5" height="60" style="fill:#000;"/>
    <s:alias val="$_join_"/>
    <g s:x="5" s:y="20" s:pid="out"/>
    <g transform="translate(0,10)" s:x="0" s:y="10" s:pid="in0">
      <text x="-3" y="-4" style="fill:#000; text-anchor: end;stroke:none">0</text>
    </g>
    <g transform="translate(0,30)" s:x="0" s:y="10" s:pid="in0">
      <text x="-3" y="-4" style="fill:#000; text-anchor: end;stroke:none">1</text>
    </g>
    <g transform="translate(0,50)" s:x="0" s:y="10" s:pid="in0">
      <text x="-3" y="-4" style="fill:#000; text-anchor: end;stroke:none">2</text>
    </g>
  </g>
  <g s:type="join" transform="translate(137.99999952316284,378.4999988079071)" s:width="4" s:height="40">
    <rect width="5" height="40" style="fill:#000;"/>
    <s:alias val="$_join_"/>
    <g s:x="5" s:y="20" s:pid="out"/>
    <g transform="translate(0,10)" s:x="0" s:y="10" s:pid="in0">
      <text x="-3" y="-4" style="fill:#000; text-anchor: end;stroke:none">0</text>
    </g>
    <g transform="translate(0,30)" s:x="0" s:y="10" s:pid="in0">
      <text x="-3" y="-4" style="fill:#000; text-anchor: end;stroke:none">1</text>
    </g>
  </g>
  <g s:type="split" transform="translate(214.33333237965903,285.9999988079071)" s:width="5" s:height="40">
    <rect width="5" height="40" style="fill:#000;stroke:none"/>
    <s:alias val="$_split_"/>
    <g s:x="0" s:y="20" s:pid="in"/>
    <g transform="translate(5,10)" s:x="5" s:y="10" s:pid="out0">
      <text x="5" y="-4" style="fill:#000;stroke:none">9</text>
    </g>
    <g transform="translate(5,30)" s:x="5" s:y="10" s:pid="out0">
      <text x="5" y="-4" style="fill:#000;stroke:none">0:8</text>
    </g>
  </g>
  <g s:type="split" transform="translate(214.33333237965903,70)" s:width="5" s:height="40">
    <rect width="5" height="40" style="fill:#000;stroke:none"/>
    <s:alias val="$_split_"/>
    <g s:x="0" s:y="20" s:pid="in"/>
    <g transform="translate(5,10)" s:x="5" s:y="10" s:pid="out0">
      <text x="5" y="-4" style="fill:#000;stroke:none">9</text>
    </g>
    <g transform="translate(5,30)" s:x="5" s:y="10" s:pid="out0">
      <text x="5" y="-4" style="fill:#000;stroke:none">0:8</text>
    </g>
  </g>
  <line x1="400.9999976158142" y1="200.49999952316284" x2="440.99999713897705" y2="200.49999952316284"/>
  <line x1="400.9999976158142" y1="200.49999952316284" x2="426.99999737739563" y2="200.49999952316284"/>
  <line x1="426.99999737739563" y1="200.49999952316284" x2="426.99999737739563" y2="547.4999985694885"/>
  <circle cx="426.99999737739563" cy="200.49999952316284" r="2" style="fill:#000"/>
  <line x1="426.99999737739563" y1="547.4999985694885" x2="440.99999713897705" y2="547.4999985694885"/>
  <line x1="400.9999976158142" y1="200.49999952316284" x2="426.99999737739563" y2="200.49999952316284"/>
  <line x1="426.99999737739563" y1="200.49999952316284" x2="426.99999737739563" y2="80.5"/>
  <line x1="426.99999737739563" y1="80.5" x2="440.99999713897705" y2="80.5"/>
  <line x1="400.9999976158142" y1="200.49999952316284" x2="426.99999737739563" y2="200.49999952316284"/>
  <line x1="426.99999737739563" y1="200.49999952316284" x2="426.99999737739563" y2="282.9999990463257"/>
  <circle cx="426.99999737739563" cy="282.9999990463257" r="2" style="fill:#000"/>
  <line x1="426.99999737739563" y1="282.9999990463257" x2="440.99999713897705" y2="282.9999990463257"/>
  <line x1="226.99999904632568" y1="189.49999952316284" x2="265.9999985694885" y2="189.49999952316284"/>
  <line x1="79" y1="527.4999985694885" x2="370.3333309491475" y2="527.4999985694885"/>
  <line x1="79" y1="527.4999985694885" x2="114.99999976158142" y2="527.4999985694885"/>
  <line x1="114.99999976158142" y1="527.4999985694885" x2="114.99999976158142" y2="408.9999988079071"/>
  <circle cx="114.99999976158142" cy="527.4999985694885" r="2" style="fill:#000"/>
  <line x1="114.99999976158142" y1="408.9999988079071" x2="137.99999952316284" y2="408.9999988079071"/>
  <line x1="79" y1="388.9999988079071" x2="94.99999976158142" y2="388.9999988079071"/>
  <line x1="94.99999976158142" y1="388.9999988079071" x2="94.99999976158142" y2="212.99999928474426"/>
  <line x1="94.99999976158142" y1="212.99999928474426" x2="344.9999978542328" y2="212.99999928474426"/>
  <line x1="344.9999978542328" y1="212.99999928474426" x2="344.9999978542328" y2="60.5"/>
  <circle cx="94.99999976158142" cy="388.9999988079071" r="2" style="fill:#000"/>
  <line x1="344.9999978542328" y1="60.5" x2="370.3333309491475" y2="60.5"/>
  <line x1="79" y1="388.9999988079071" x2="137.99999952316284" y2="388.9999988079071"/>
  <line x1="158.33333285649616" y1="306.4999988079071" x2="214.33333237965903" y2="306.4999988079071"/>
  <line x1="401.3333309491475" y1="527.4999985694885" x2="440.99999713897705" y2="527.4999985694885"/>
  <line x1="401.3333309491475" y1="60.5" x2="440.99999713897705" y2="60.5"/>
  <line x1="471.99999713897705" y1="180.49999952316284" x2="499.9999966621399" y2="180.49999952316284"/>
  <line x1="471.99999713897705" y1="180.49999952316284" x2="485.9999969005585" y2="180.49999952316284"/>
  <line x1="485.9999969005585" y1="180.49999952316284" x2="485.9999969005585" y2="123.99999976158142"/>
  <line x1="485.9999969005585" y1="123.99999976158142" x2="354.9999978542328" y2="123.99999976158142"/>
  <line x1="354.9999978542328" y1="123.99999976158142" x2="354.9999978542328" y2="223.99999928474426"/>
  <line x1="354.9999978542328" y1="223.99999928474426" x2="114.99999976158142" y2="223.99999928474426"/>
  <line x1="114.99999976158142" y1="223.99999928474426" x2="114.99999976158142" y2="298.9999988079071"/>
  <circle cx="354.9999978542328" cy="223.99999928474426" r="2" style="fill:#000"/>
  <circle cx="354.9999978542328" cy="123.99999976158142" r="2" style="fill:#000"/>
  <line x1="114.99999976158142" y1="298.9999988079071" x2="135.33333285649616" y2="298.9999988079071"/>
  <line x1="471.99999713897705" y1="180.49999952316284" x2="485.9999969005585" y2="180.49999952316284"/>
  <line x1="485.9999969005585" y1="180.49999952316284" x2="485.9999969005585" y2="223.99999928474426"/>
  <line x1="485.9999969005585" y1="223.99999928474426" x2="295.99999833106995" y2="223.99999928474426"/>
  <line x1="295.99999833106995" y1="223.99999928474426" x2="295.99999833106995" y2="252.99999904632568"/>
  <circle cx="295.99999833106995" cy="223.99999928474426" r="2" style="fill:#000"/>
  <line x1="295.99999833106995" y1="252.99999904632568" x2="309.99999809265137" y2="252.99999904632568"/>
  <line x1="471.99999713897705" y1="180.49999952316284" x2="485.9999969005585" y2="180.49999952316284"/>
  <line x1="485.9999969005585" y1="180.49999952316284" x2="485.9999969005585" y2="123.99999976158142"/>
  <line x1="485.9999969005585" y1="123.99999976158142" x2="114.99999976158142" y2="123.99999976158142"/>
  <line x1="114.99999976158142" y1="123.99999976158142" x2="114.99999976158142" y2="83"/>
  <circle cx="485.9999969005585" cy="180.49999952316284" r="2" style="fill:#000"/>
  <line x1="114.99999976158142" y1="83" x2="135.33333285649616" y2="83"/>
  <line x1="471.99999713897705" y1="527.4999985694885" x2="499.9999966621399" y2="527.4999985694885"/>
  <line x1="471.99999713897705" y1="60.5" x2="499.9999966621399" y2="60.5"/>
  <line x1="471.99999713897705" y1="262.9999990463257" x2="499.9999966621399" y2="262.9999990463257"/>
  <line x1="330.99999809265137" y1="262.9999990463257" x2="344.9999978542328" y2="262.9999990463257"/>
  <line x1="344.9999978542328" y1="262.9999990463257" x2="344.9999978542328" y2="234.99999928474426"/>
  <line x1="344.9999978542328" y1="234.99999928474426" x2="416.99999737739563" y2="234.99999928474426"/>
  <line x1="416.99999737739563" y1="234.99999928474426" x2="416.99999737739563" y2="180.49999952316284"/>
  <circle cx="344.9999978542328" cy="262.9999990463257" r="2" style="fill:#000"/>
  <line x1="416.99999737739563" y1="180.49999952316284" x2="440.99999713897705" y2="180.49999952316284"/>
  <line x1="330.99999809265137" y1="262.9999990463257" x2="371.9999976158142" y2="262.9999990463257"/>
  <line x1="225.66666571299234" y1="406.4999988079071" x2="241.9999988079071" y2="406.4999988079071"/>
  <line x1="241.9999988079071" y1="406.4999988079071" x2="241.9999988079071" y2="431.4999988079071"/>
  <line x1="241.9999988079071" y1="431.4999988079071" x2="265.9999985694885" y2="431.4999988079071"/>
  <line x1="225.66666571299234" y1="451.4999988079071" x2="265.9999985694885" y2="451.4999988079071"/>
  <line x1="225.66666571299234" y1="496.4999988079071" x2="241.9999988079071" y2="496.4999988079071"/>
  <line x1="241.9999988079071" y1="496.4999988079071" x2="241.9999988079071" y2="471.4999988079071"/>
  <line x1="241.9999988079071" y1="471.4999988079071" x2="265.9999985694885" y2="471.4999988079071"/>
  <line x1="402.9999976158142" y1="262.9999990463257" x2="440.99999713897705" y2="262.9999990463257"/>
  <line x1="158.33333285649616" y1="90.5" x2="214.33333237965903" y2="90.5"/>
  <line x1="81" y1="487.4999985694885" x2="104.99999976158142" y2="487.4999985694885"/>
  <line x1="104.99999976158142" y1="487.4999985694885" x2="104.99999976158142" y2="313.9999988079071"/>
  <line x1="104.99999976158142" y1="313.9999988079071" x2="135.33333285649616" y2="313.9999988079071"/>
  <line x1="159.99999952316284" y1="348.9999988079071" x2="183.99999928474426" y2="348.9999988079071"/>
  <line x1="183.99999928474426" y1="348.9999988079071" x2="183.99999928474426" y2="413.9999988079071"/>
  <line x1="183.99999928474426" y1="413.9999988079071" x2="202.66666571299234" y2="413.9999988079071"/>
  <line x1="159.99999952316284" y1="458.9999988079071" x2="202.66666571299234" y2="458.9999988079071"/>
  <line x1="159.99999952316284" y1="503.9999988079071" x2="202.66666571299234" y2="503.9999988079071"/>
  <line x1="81" y1="98" x2="135.33333285649616" y2="98"/>
  <line x1="271.9999985694885" y1="159.49999952316284" x2="285.99999833106995" y2="159.49999952316284"/>
  <line x1="285.99999833106995" y1="159.49999952316284" x2="285.99999833106995" y2="272.9999990463257"/>
  <line x1="285.99999833106995" y1="272.9999990463257" x2="309.99999809265137" y2="272.9999990463257"/>
  <line x1="271.9999985694885" y1="441.4999988079071" x2="320.49999809265137" y2="441.4999988079071"/>
  <line x1="320.49999809265137" y1="441.4999988079071" x2="320.49999809265137" y2="278.4999990463257"/>
  <line x1="143.99999952316284" y1="398.9999988079071" x2="202.66666571299234" y2="398.9999988079071"/>
  <line x1="143.99999952316284" y1="398.9999988079071" x2="173.99999928474426" y2="398.9999988079071"/>
  <line x1="173.99999928474426" y1="398.9999988079071" x2="173.99999928474426" y2="443.9999988079071"/>
  <circle cx="173.99999928474426" cy="398.9999988079071" r="2" style="fill:#000"/>
  <circle cx="173.99999928474426" cy="443.9999988079071" r="2" style="fill:#000"/>
  <line x1="173.99999928474426" y1="443.9999988079071" x2="202.66666571299234" y2="443.9999988079071"/>
  <line x1="143.99999952316284" y1="398.9999988079071" x2="173.99999928474426" y2="398.9999988079071"/>
  <line x1="173.99999928474426" y1="398.9999988079071" x2="173.99999928474426" y2="488.9999988079071"/>
  <line x1="173.99999928474426" y1="488.9999988079071" x2="202.66666571299234" y2="488.9999988079071"/>
  <line x1="220.33333237965903" y1="296.4999988079071" x2="344.9999978542328" y2="296.4999988079071"/>
  <line x1="344.9999978542328" y1="296.4999988079071" x2="344.9999978542328" y2="547.4999985694885"/>
  <line x1="344.9999978542328" y1="547.4999985694885" x2="370.3333309491475" y2="547.4999985694885"/>
  <line x1="220.33333237965903" y1="316.4999988079071" x2="241.9999988079071" y2="316.4999988079071"/>
  <line x1="241.9999988079071" y1="316.4999988079071" x2="241.9999988079071" y2="149.49999952316284"/>
  <line x1="241.9999988079071" y1="149.49999952316284" x2="265.9999985694885" y2="149.49999952316284"/>
  <line x1="220.33333237965903" y1="80.5" x2="370.3333309491475" y2="80.5"/>
  <line x1="220.33333237965903" y1="100.5" x2="251.9999988079071" y2="100.5"/>
  <line x1="251.9999988079071" y1="100.5" x2="251.9999988079071" y2="169.49999952316284"/>
  <line x1="251.9999988079071" y1="169.49999952316284" x2="265.9999985694885" y2="169.49999952316284"/>
</svg>
