<svg xmlns="http://www.w3.org/2000/svg" xmlns:xlink="http://www.w3.org/1999/xlink" xmlns:s="https://github.com/nturley/netlistsvg" width="286" height="251.5">
  <style>svg {
    stroke:#000;
    fill:none;
  }
  text {
    fill:#000;
    stroke:none;
    font-size:10px;
    font-weight: bold;
    font-family: "Courier New", monospace;
  }
  .nodelabel {
    text-anchor: middle;
  }
  .inputPortLabel {
    text-anchor: end;
  }
  .splitjoinBody {
    fill:#000;
  }</style>
  <g s:type="inputExt" transform="translate(12,189.5)" s:width="30" s:height="20" id="cell_inthing">
    <text x="15" y="-4" class="nodelabel cell_inthing" s:attribute="ref">inthing</text>
    <s:alias val="$_inputExt_"/>
    <path d="M0,0 L0,20 L15,20 L30,10 L15,0 Z" class="cell_inthing"/>
    <g s:x="28" s:y="10" s:pid="Y"/>
  </g>
  <g s:type="outputExt" transform="translate(217,24.5)" s:width="30" s:height="20" id="cell_outthing">
    <text x="15" y="-4" class="nodelabel cell_outthing" s:attribute="ref">outthing</text>
    <s:alias val="$_outputExt_"/>
    <path d="M30,0 L30,20 L15,20 L0,10 L15,0 Z" class="cell_outthing"/>
    <g s:x="0" s:y="10" s:pid="A"/>
  </g>
  <g s:type="outputExt" transform="translate(217,154.5)" s:width="30" s:height="20" id="cell_outthing2">
    <text x="15" y="-4" class="nodelabel cell_outthing2" s:attribute="ref">outthing2</text>
    <s:alias val="$_outputExt_"/>
    <path d="M30,0 L30,20 L15,20 L0,10 L15,0 Z" class="cell_outthing2"/>
    <g s:x="0" s:y="10" s:pid="A"/>
  </g>
  <g s:type="outputExt" transform="translate(217,89.5)" s:width="30" s:height="20" id="cell_outthing3">
    <text x="15" y="-4" class="nodelabel cell_outthing3" s:attribute="ref">outthing3</text>
    <s:alias val="$_outputExt_"/>
    <path d="M30,0 L30,20 L15,20 L0,10 L15,0 Z" class="cell_outthing3"/>
    <g s:x="0" s:y="10" s:pid="A"/>
  </g>
  <g s:type="outputExt" transform="translate(217,219.5)" s:width="30" s:height="20" id="cell_outthing4">
    <text x="15" y="-4" class="nodelabel cell_outthing4" s:attribute="ref">outthing4</text>
    <s:alias val="$_outputExt_"/>
    <path d="M30,0 L30,20 L15,20 L0,10 L15,0 Z" class="cell_outthing4"/>
    <g s:x="0" s:y="10" s:pid="A"/>
  </g>
  <g s:type="join" transform="translate(176,14)" s:width="4" s:height="40" id="cell_$join$,2,3,2,3,">
    <rect width="5" height="40" class="splitjoinBody" s:generic="body"/>
    <s:alias val="$_join_"/>
    <g s:x="5" s:y="20" s:pid="out"/>
    <g transform="translate(0,10)" s:x="0" s:y="10" s:pid="in0">
      <text x="-3" y="-4" class="inputPortLabel">0:1</text>
    </g>
    <g transform="translate(0,30)" s:x="0" s:y="10" s:pid="in0">
      <text x="-3" y="-4" class="inputPortLabel">2:3</text>
    </g>
  </g>
  <g s:type="join" transform="translate(176,144)" s:width="4" s:height="40" id="cell_$join$,2,3,5,">
    <rect width="5" height="40" class="splitjoinBody" s:generic="body"/>
    <s:alias val="$_join_"/>
    <g s:x="5" s:y="20" s:pid="out"/>
    <g transform="translate(0,10)" s:x="0" s:y="10" s:pid="in0">
      <text x="-3" y="-4" class="inputPortLabel">0:1</text>
    </g>
    <g transform="translate(0,30)" s:x="0" s:y="10" s:pid="in0">
      <text x="-3" y="-4" class="inputPortLabel">2</text>
    </g>
  </g>
  <g s:type="split" transform="translate(98,179)" s:width="5" s:height="40" id="cell_$split$,2,3,4,5,">
    <rect width="5" height="60" class="splitjoinBody" s:generic="body"/>
    <s:alias val="$_split_"/>
    <g s:x="0" s:y="20" s:pid="in"/>
    <g transform="translate(4,10)" s:x="4" s:y="10" s:pid="out0">
      <text x="5" y="-4">0:1</text>
    </g>
    <g transform="translate(4,30)" s:x="4" s:y="10" s:pid="out0">
      <text x="5" y="-4">3</text>
    </g>
    <g transform="translate(4,50)" s:x="4" s:y="10" s:pid="out0">
      <text x="5" y="-4">0</text>
    </g>
  </g>
  <line x1="182" x2="217" y1="34.5" y2="34.5" class="net_16,17,18,19,20,21,22,23,24"/>
  <line x1="182" x2="217" y1="164.5" y2="164.5" class="net_16,17,18,19,20,21,22,23,24"/>
  <line x1="182" x2="192" y1="164.5" y2="164.5" class="net_16,17,18,19,20,21,22,23,24"/>
  <line x1="192" x2="192" y1="164.5" y2="99.5" class="net_16,17,18,19,20,21,22,23,24"/>
  <circle cx="192" cy="164.5" r="2" style="fill:#000" class="net_16,17,18,19,20,21,22,23,24"/>
  <line x1="192" x2="217" y1="99.5" y2="99.5" class="net_16,17,18,19,20,21,22,23,24"/>
  <line x1="103" x2="217" y1="229.5" y2="229.5" class="net_16,17,18,19,20,21,22,23,24"/>
  <line x1="103" x2="132" y1="189.5" y2="189.5" class="net_61,62"/>
  <line x1="132" x2="132" y1="189.5" y2="24.5" class="net_61,62"/>
  <line x1="132" x2="176" y1="24.5" y2="24.5" class="net_61,62"/>
  <line x1="103" x2="132" y1="189.5" y2="189.5" class="net_12"/>
  <line x1="132" x2="132" y1="189.5" y2="44.5" class="net_12"/>
  <circle cx="132" cy="44.5" r="2" style="fill:#000" class="net_12"/>
  <line x1="132" x2="176" y1="44.5" y2="44.5" class="net_12"/>
  <line x1="103" x2="132" y1="189.5" y2="189.5" class="net_12"/>
  <line x1="132" x2="132" y1="189.5" y2="154.5" class="net_12"/>
  <circle cx="132" cy="154.5" r="2" style="fill:#000" class="net_12"/>
  <line x1="132" x2="176" y1="154.5" y2="154.5" class="net_12"/>
  <line x1="103" x2="142" y1="209.5" y2="209.5" class="net_35"/>
  <line x1="142" x2="142" y1="209.5" y2="174.5" class="net_35"/>
  <line x1="142" x2="176" y1="174.5" y2="174.5" class="net_35"/>
  <line x1="40" x2="98" y1="199.5" y2="199.5" class="net_13"/>
</svg>
