<svg xmlns="http://www.w3.org/2000/svg" xmlns:xlink="http://www.w3.org/1999/xlink" xmlns:s="https://github.com/nturley/netlistsvg" width="86" height="249">
  <style>svg {
    stroke: #000;
    fill: none;
  }
  text {
    fill: #000;
    stroke: none;
    font-size: 10px;
    font-weight: bold;
    font-family: "Courier New", monospace;
  }
  .nodelabel {
    text-anchor: middle;
  }
  .inputPortLabel {
    text-anchor: end;
  }
  .splitjoinBody {
    fill: #000;
  }
  .symbol {
    stroke-linejoin: round;
    stroke-linecap: round;
    stroke-width: 2;
  }
  .detail {
    stroke-linejoin: round;
    stroke-linecap: round;
    fill: #000;
  }</style>
  <g s:type="resistor_v" s:width="10" s:height="50" transform="translate(17,47)" id="cell_r1">
    <s:alias val="r_v"/>
    <text x="15" y="25" s:attribute="ref" class="cell_r1">r1</text>
    <path d="M0,10 V40 H10 V10 Z" class="symbol cell_r1"/>
    <path d="M5,0 V10 M5,40 V50" class="connect cell_r1"/>
    <g s:x="5" s:y="0" s:pid="A" s:position="top"/>
    <g s:x="5" s:y="50" s:pid="B" s:position="bottom"/>
  </g>
  <g s:type="resistor_v" s:width="10" s:height="50" transform="translate(17,137)" id="cell_r2">
    <s:alias val="r_v"/>
    <text x="15" y="25" s:attribute="ref" class="cell_r2">r2</text>
    <path d="M0,10 V40 H10 V10 Z" class="symbol cell_r2"/>
    <path d="M5,0 V10 M5,40 V50" class="connect cell_r2"/>
    <g s:x="5" s:y="0" s:pid="A" s:position="top"/>
    <g s:x="5" s:y="50" s:pid="B" s:position="bottom"/>
  </g>
  <g s:type="vcc" s:width="20" s:height="30" transform="translate(12,12)" id="cell_vcc">
    <s:alias val="vcc"/>
    <text x="10" y="-4" class="nodelabel cell_vcc" s:attribute="name">VCC</text>
    <path d="M0,0 H20 L10,15 Z M10,15 V30" class="cell_vcc"/>
    <g s:x="10" s:y="30" s:pid="A" s:position="bottom"/>
  </g>
  <g s:type="gnd" s:width="20" s:height="30" transform="translate(12,207)" id="cell_gnd">
    <s:alias val="gnd"/>
    <path d="M0,0 H20 M3,5 H17 M7,10 H13 M10,0 V-15" class="cell_gnd"/>
    <g s:x="10" s:y="-15" s:pid="A" s:position="top"/>
  </g>
  <g s:type="outputExt" s:width="30" s:height="20" transform="translate(32,112)" id="cell_vout">
    <text x="15" y="-4" class="nodelabel cell_vout" s:attribute="ref">vout</text>
    <s:alias val="$_outputExt_"/>
    <path d="M30,0 V20 H15 L0,10 15,0 Z" class="cell_vout"/>
    <g s:x="0" s:y="10" s:pid="A" s:position="left"/>
  </g>
  <line x1="22" x2="22" y1="42" y2="47" class="net_12"/>
  <line x1="22" x2="22" y1="97" y2="122" class="net_12"/>
  <circle cx="22" cy="122" r="2" style="fill:#000" class="net_12"/>
  <line x1="22" x2="32" y1="122" y2="122" class="net_12"/>
  <line x1="32" x2="22" y1="122" y2="122" class="net_18"/>
  <circle cx="22" cy="122" r="2" style="fill:#000" class="net_18"/>
  <line x1="22" x2="22" y1="122" y2="137" class="net_18"/>
  <line x1="22" x2="22" y1="187" y2="192" class="net_18"/>
</svg>
