<svg xmlns="http://www.w3.org/2000/svg" xmlns:xlink="http://www.w3.org/1999/xlink" xmlns:s="https://github.com/nturley/netlistsvg" style="stroke:#000; fill:none; font-size: 10px; font-weight: bold;">
  <g s:type="inputExt" transform="translate(421.99999701976776,189.49999940395355)" s:width="30" s:height="20">
    <text x="15" y="-4" style="fill:#000; text-anchor: middle;stroke:none">clock</text>
    <s:alias val="$_inputExt_"/>
    <path d="M0,0 L0,20 L15,20 L30,10 L15,0 Z"/>
    <g s:x="28" s:y="10" s:pid="Y"/>
  </g>
  <g s:type="inputExt" transform="translate(219.4999988079071,175.99999940395355)" s:width="30" s:height="20">
    <text x="15" y="-4" style="fill:#000; text-anchor: middle;stroke:none">data_in</text>
    <s:alias val="$_inputExt_"/>
    <path d="M0,0 L0,20 L15,20 L30,10 L15,0 Z"/>
    <g s:x="28" s:y="10" s:pid="Y"/>
  </g>
  <g s:type="inputExt" transform="translate(50,552.9999982118607)" s:width="30" s:height="20">
    <text x="15" y="-4" style="fill:#000; text-anchor: middle;stroke:none">up</text>
    <s:alias val="$_inputExt_"/>
    <path d="M0,0 L0,20 L15,20 L30,10 L15,0 Z"/>
    <g s:x="28" s:y="10" s:pid="Y"/>
  </g>
  <g s:type="inputExt" transform="translate(50,400.9999985098839)" s:width="30" s:height="20">
    <text x="15" y="-4" style="fill:#000; text-anchor: middle;stroke:none">down</text>
    <s:alias val="$_inputExt_"/>
    <path d="M0,0 L0,20 L15,20 L30,10 L15,0 Z"/>
    <g s:x="28" s:y="10" s:pid="Y"/>
  </g>
  <g s:type="outputExt" transform="translate(566.4999958276749,560.4999982118607)" s:width="30" s:height="20">
    <text x="15" y="-4" style="fill:#000; text-anchor: middle;stroke:none">carry_out</text>
    <s:alias val="$_outputExt_"/>
    <path d="M30,0 L30,20 L15,20 L0,10 L15,0 Z"/>
    <g s:x="0" s:y="10" s:pid="A"/>
  </g>
  <g s:type="outputExt" transform="translate(566.4999958276749,52.5)" s:width="30" s:height="20">
    <text x="15" y="-4" style="fill:#000; text-anchor: middle;stroke:none">borrow_out</text>
    <s:alias val="$_outputExt_"/>
    <path d="M30,0 L30,20 L15,20 L0,10 L15,0 Z"/>
    <g s:x="0" s:y="10" s:pid="A"/>
  </g>
  <g s:type="outputExt" transform="translate(566.4999958276749,169.49999940395355)" s:width="30" s:height="20">
    <text x="15" y="-4" style="fill:#000; text-anchor: middle;stroke:none">count_out</text>
    <s:alias val="$_outputExt_"/>
    <path d="M30,0 L30,20 L15,20 L0,10 L15,0 Z"/>
    <g s:x="0" s:y="10" s:pid="A"/>
  </g>
  <g s:type="outputExt" transform="translate(566.4999958276749,261.4999988079071)" s:width="30" s:height="20">
    <text x="15" y="-4" style="fill:#000; text-anchor: middle;stroke:none">parity_out</text>
    <s:alias val="$_outputExt_"/>
    <path d="M30,0 L30,20 L15,20 L0,10 L15,0 Z"/>
    <g s:x="0" s:y="10" s:pid="A"/>
  </g>
  <g s:type="add" transform="translate(144.33333273728687,305.9999985098839)" s:width="25" s:height="25">
    <s:alias val="$add"/>
    <circle r="12.5" cx="12.5" cy="12.5"/>
    <line x1="7.5" x2="17.5" y1="12.5" y2="12.5"/>
    <line x1="12.5" x2="12.5" y1="7.5" y2="17.5"/>
    <g s:x="3" s:y="5" s:pid="A"/>
    <g s:x="3" s:y="20" s:pid="B"/>
    <g s:x="25" s:y="12.5" s:pid="Y"/>
  </g>
  <g s:type="and" transform="translate(420.3333303531011,557.9999982118607)" s:width="30" s:height="25">
    <s:alias val="$and"/>
    <path d="M0,0 L0,25 L15,25 A15 12.5 0 0 0 15,0 Z"/>
    <g s:x="0" s:y="5" s:pid="A"/>
    <g s:x="0" s:y="20" s:pid="B"/>
    <g s:x="30" s:y="12.5" s:pid="Y"/>
  </g>
  <g s:type="and" transform="translate(420.3333303531011,50)" s:width="30" s:height="25">
    <s:alias val="$and"/>
    <path d="M0,0 L0,25 L15,25 A15 12.5 0 0 0 15,0 Z"/>
    <g s:x="0" s:y="5" s:pid="A"/>
    <g s:x="0" s:y="20" s:pid="B"/>
    <g s:x="30" s:y="12.5" s:pid="Y"/>
  </g>
  <g s:type="dff" transform="translate(500.4999964237213,169.49999940395355)" s:width="30" s:height="40">
    <s:alias val="$dff"/>
    <rect width="30" height="40" x="0" y="0"/>
    <path d="M0,35 L5,30 L0,25"/>
    <g s:x="30" s:y="10" s:pid="Q"/>
    <g s:x="0" s:y="30" s:pid="CLK"/>
    <g s:x="0" s:y="10" s:pid="D"/>
  </g>
  <g s:type="dff" transform="translate(500.4999964237213,560.4999982118607)" s:width="30" s:height="40">
    <s:alias val="$dff"/>
    <rect width="30" height="40" x="0" y="0"/>
    <path d="M0,35 L5,30 L0,25"/>
    <g s:x="30" s:y="10" s:pid="Q"/>
    <g s:x="0" s:y="30" s:pid="CLK"/>
    <g s:x="0" s:y="10" s:pid="D"/>
  </g>
  <g s:type="dff" transform="translate(500.4999964237213,52.5)" s:width="30" s:height="40">
    <s:alias val="$dff"/>
    <rect width="30" height="40" x="0" y="0"/>
    <path d="M0,35 L5,30 L0,25"/>
    <g s:x="30" s:y="10" s:pid="Q"/>
    <g s:x="0" s:y="30" s:pid="CLK"/>
    <g s:x="0" s:y="10" s:pid="D"/>
  </g>
  <g s:type="dff" transform="translate(500.4999964237213,261.4999988079071)" s:width="30" s:height="40">
    <s:alias val="$dff"/>
    <rect width="30" height="40" x="0" y="0"/>
    <path d="M0,35 L5,30 L0,25"/>
    <g s:x="30" s:y="10" s:pid="Q"/>
    <g s:x="0" s:y="30" s:pid="CLK"/>
    <g s:x="0" s:y="10" s:pid="D"/>
  </g>
  <g s:type="mux" transform="translate(350.4999976158142,251.4999988079071)" s:width="20" s:height="40">
    <s:alias val="$pmux"/>
    <s:alias val="$mux"/>
    <path d="M0,0 L20,10 L20,30 L0,40 Z"/>
    <g s:x="0" s:y="10" s:pid="A"/>
    <g s:x="0" s:y="30" s:pid="B"/>
    <g s:x="10" s:y="35" s:pid="S"/>
    <g s:x="20" s:y="20" s:pid="Y"/>
  </g>
  <g s:type="eq" transform="translate(221.16666547457376,415.9999985098839)" s:width="25" s:height="25">
    <s:alias val="$eq"/>
    <circle r="12.5" cx="12.5" cy="12.5"/>
    <line x1="7.5" x2="17.5" y1="10" y2="10"/>
    <line x1="7.5" x2="17.5" y1="15" y2="15"/>
    <g s:x="3" s:y="5" s:pid="A"/>
    <g s:x="3" s:y="20" s:pid="B"/>
    <g s:x="25" s:y="12.5" s:pid="Y"/>
  </g>
  <g s:type="eq" transform="translate(221.16666547457376,465.9999985098839)" s:width="25" s:height="25">
    <s:alias val="$eq"/>
    <circle r="12.5" cx="12.5" cy="12.5"/>
    <line x1="7.5" x2="17.5" y1="10" y2="10"/>
    <line x1="7.5" x2="17.5" y1="15" y2="15"/>
    <g s:x="3" s:y="5" s:pid="A"/>
    <g s:x="3" s:y="20" s:pid="B"/>
    <g s:x="25" s:y="12.5" s:pid="Y"/>
  </g>
  <g s:type="eq" transform="translate(221.16666547457376,515.9999985098839)" s:width="25" s:height="25">
    <s:alias val="$eq"/>
    <circle r="12.5" cx="12.5" cy="12.5"/>
    <line x1="7.5" x2="17.5" y1="10" y2="10"/>
    <line x1="7.5" x2="17.5" y1="15" y2="15"/>
    <g s:x="3" s:y="5" s:pid="A"/>
    <g s:x="3" s:y="20" s:pid="B"/>
    <g s:x="25" s:y="12.5" s:pid="Y"/>
  </g>
  <g s:type="reduce_xor" transform="translate(418.99999701976776,258.9999988079071)" s:width="33" s:height="25">
    <s:alias val="$reduce_xor"/>
    <path d="M3,0 A30 25 0 0 1 3,25 A30 25 0 0 0 33,12.5 A30 25 0 0 0 3,0"/>
    <path d="M0,0 A30 25 0 0 1 0,25"/>
    <g s:x="33" s:y="12.5" s:pid="Y"/>
    <g s:x="3" s:y="12.5" s:pid="A"/>
  </g>
  <g s:type="sub" transform="translate(144.33333273728687,67.5)" s:width="25" s:height="25">
    <s:alias val="$sub"/>
    <circle r="12.5" cx="12.5" cy="12.5"/>
    <line x1="7.5" x2="17.5" y1="12.5" y2="12.5"/>
    <g s:x="3" s:y="5" s:pid="A"/>
    <g s:x="3" s:y="20" s:pid="B"/>
    <g s:x="25" s:y="12.5" s:pid="Y"/>
  </g>
  <g s:type="constant" transform="translate(50,507.99999821186066)" s:width="30" s:height="20">
    <text x="15" y="-4" style="fill:#000; text-anchor: middle;stroke:none">11</text>
    <s:alias val="$_constant_"/>
    <rect width="30" height="20"/>
    <g s:x="30" s:y="10" s:pid="Y"/>
  </g>
  <g s:type="constant" transform="translate(140.99999940395355,355.9999985098839)" s:width="30" s:height="20">
    <text x="15" y="-4" style="fill:#000; text-anchor: middle;stroke:none">10</text>
    <s:alias val="$_constant_"/>
    <rect width="30" height="20"/>
    <g s:x="30" s:y="10" s:pid="Y"/>
  </g>
  <g s:type="constant" transform="translate(140.99999940395355,475.9999985098839)" s:width="30" s:height="20">
    <text x="15" y="-4" style="fill:#000; text-anchor: middle;stroke:none">01</text>
    <s:alias val="$_constant_"/>
    <rect width="30" height="20"/>
    <g s:x="30" s:y="10" s:pid="Y"/>
  </g>
  <g s:type="constant" transform="translate(140.99999940395355,525.9999985098839)" s:width="30" s:height="20">
    <text x="15" y="-4" style="fill:#000; text-anchor: middle;stroke:none">00</text>
    <s:alias val="$_constant_"/>
    <rect width="30" height="20"/>
    <g s:x="30" s:y="10" s:pid="Y"/>
  </g>
  <g s:type="constant" transform="translate(50,77.5)" s:width="30" s:height="20">
    <text x="15" y="-4" style="fill:#000; text-anchor: middle;stroke:none">101</text>
    <s:alias val="$_constant_"/>
    <rect width="30" height="20"/>
    <g s:x="30" s:y="10" s:pid="Y"/>
  </g>
  <g s:type="join" transform="translate(296.99999821186066,135.99999940395355)" s:width="4" s:height="40">
    <rect width="5" height="60" style="fill:#000;"/>
    <s:alias val="$_join_"/>
    <g s:x="5" s:y="20" s:pid="out"/>
    <g transform="translate(0,10)" s:x="0" s:y="10" s:pid="in0">
      <text x="-3" y="-4" style="fill:#000; text-anchor: end;stroke:none">0:8</text>
    </g>
    <g transform="translate(0,30)" s:x="0" s:y="10" s:pid="in0">
      <text x="-3" y="-4" style="fill:#000; text-anchor: end;stroke:none">9:17</text>
    </g>
    <g transform="translate(0,50)" s:x="0" s:y="10" s:pid="in0">
      <text x="-3" y="-4" style="fill:#000; text-anchor: end;stroke:none">18:26</text>
    </g>
  </g>
  <g s:type="join" transform="translate(296.99999821186066,448.4999985098839)" s:width="4" s:height="40">
    <rect width="5" height="60" style="fill:#000;"/>
    <s:alias val="$_join_"/>
    <g s:x="5" s:y="20" s:pid="out"/>
    <g transform="translate(0,10)" s:x="0" s:y="10" s:pid="in0">
      <text x="-3" y="-4" style="fill:#000; text-anchor: end;stroke:none">0</text>
    </g>
    <g transform="translate(0,30)" s:x="0" s:y="10" s:pid="in0">
      <text x="-3" y="-4" style="fill:#000; text-anchor: end;stroke:none">1</text>
    </g>
    <g transform="translate(0,50)" s:x="0" s:y="10" s:pid="in0">
      <text x="-3" y="-4" style="fill:#000; text-anchor: end;stroke:none">2</text>
    </g>
  </g>
  <g s:type="join" transform="translate(149.99999940395355,400.9999985098839)" s:width="4" s:height="40">
    <rect width="5" height="40" style="fill:#000;"/>
    <s:alias val="$_join_"/>
    <g s:x="5" s:y="20" s:pid="out"/>
    <g transform="translate(0,10)" s:x="0" s:y="10" s:pid="in0">
      <text x="-3" y="-4" style="fill:#000; text-anchor: end;stroke:none">0</text>
    </g>
    <g transform="translate(0,30)" s:x="0" s:y="10" s:pid="in0">
      <text x="-3" y="-4" style="fill:#000; text-anchor: end;stroke:none">1</text>
    </g>
  </g>
  <g s:type="split" transform="translate(235.83333214124045,298.4999985098839)" s:width="5" s:height="40">
    <rect width="5" height="40" style="fill:#000;stroke:none"/>
    <s:alias val="$_split_"/>
    <g s:x="0" s:y="20" s:pid="in"/>
    <g transform="translate(4,10)" s:x="4" s:y="10" s:pid="out0">
      <text x="5" y="-4" style="fill:#000;stroke:none">9</text>
    </g>
    <g transform="translate(4,30)" s:x="4" s:y="10" s:pid="out0">
      <text x="5" y="-4" style="fill:#000;stroke:none">0:8</text>
    </g>
  </g>
  <g s:type="split" transform="translate(235.83333214124045,60)" s:width="5" s:height="40">
    <rect width="5" height="40" style="fill:#000;stroke:none"/>
    <s:alias val="$_split_"/>
    <g s:x="0" s:y="20" s:pid="in"/>
    <g transform="translate(4,10)" s:x="4" s:y="10" s:pid="out0">
      <text x="5" y="-4" style="fill:#000;stroke:none">9</text>
    </g>
    <g transform="translate(4,30)" s:x="4" s:y="10" s:pid="out0">
      <text x="5" y="-4" style="fill:#000;stroke:none">0:8</text>
    </g>
  </g>
  <line x1="450.99999701976776" y1="199.99999940395355" x2="500.4999964237213" y2="199.99999940395355"/>
  <line x1="450.99999701976776" y1="199.99999940395355" x2="482.99999672174454" y2="199.99999940395355"/>
  <line x1="482.99999672174454" y1="199.99999940395355" x2="482.99999672174454" y2="590.9999982118607"/>
  <circle cx="482.99999672174454" cy="199.99999940395355" r="2" style="fill:#000"/>
  <line x1="482.99999672174454" y1="590.9999982118607" x2="500.4999964237213" y2="590.9999982118607"/>
  <line x1="450.99999701976776" y1="199.99999940395355" x2="482.99999672174454" y2="199.99999940395355"/>
  <line x1="482.99999672174454" y1="199.99999940395355" x2="482.99999672174454" y2="83"/>
  <line x1="482.99999672174454" y1="83" x2="500.4999964237213" y2="83"/>
  <line x1="450.99999701976776" y1="199.99999940395355" x2="482.99999672174454" y2="199.99999940395355"/>
  <line x1="482.99999672174454" y1="199.99999940395355" x2="482.99999672174454" y2="291.9999988079071"/>
  <circle cx="482.99999672174454" cy="291.9999988079071" r="2" style="fill:#000"/>
  <line x1="482.99999672174454" y1="291.9999988079071" x2="500.4999964237213" y2="291.9999988079071"/>
  <line x1="248.4999988079071" y1="186.49999940395355" x2="296.99999821186066" y2="186.49999940395355"/>
  <line x1="79" y1="563.4999982118607" x2="420.3333303531011" y2="563.4999982118607"/>
  <line x1="79" y1="563.4999982118607" x2="123.49999970197678" y2="563.4999982118607"/>
  <line x1="123.49999970197678" y1="563.4999982118607" x2="123.49999970197678" y2="431.4999985098839"/>
  <circle cx="123.49999970197678" cy="563.4999982118607" r="2" style="fill:#000"/>
  <line x1="123.49999970197678" y1="431.4999985098839" x2="149.99999940395355" y2="431.4999985098839"/>
  <line x1="79" y1="411.4999985098839" x2="98.49999970197678" y2="411.4999985098839"/>
  <line x1="98.49999970197678" y1="411.4999985098839" x2="98.49999970197678" y2="213.49999910593033"/>
  <line x1="98.49999970197678" y1="213.49999910593033" x2="388.999997317791" y2="213.49999910593033"/>
  <line x1="388.999997317791" y1="213.49999910593033" x2="388.999997317791" y2="55.5"/>
  <circle cx="98.49999970197678" cy="411.4999985098839" r="2" style="fill:#000"/>
  <line x1="388.999997317791" y1="55.5" x2="420.3333303531011" y2="55.5"/>
  <line x1="79" y1="411.4999985098839" x2="149.99999940395355" y2="411.4999985098839"/>
  <line x1="170.33333273728687" y1="318.9999985098839" x2="235.83333214124045" y2="318.9999985098839"/>
  <line x1="451.3333303531011" y1="570.9999982118607" x2="500.4999964237213" y2="570.9999982118607"/>
  <line x1="451.3333303531011" y1="63" x2="500.4999964237213" y2="63"/>
  <line x1="531.4999964237213" y1="179.99999940395355" x2="566.4999958276749" y2="179.99999940395355"/>
  <line x1="531.4999964237213" y1="179.99999940395355" x2="548.9999961256981" y2="179.99999940395355"/>
  <line x1="548.9999961256981" y1="179.99999940395355" x2="548.9999961256981" y2="117.49999970197678"/>
  <line x1="548.9999961256981" y1="117.49999970197678" x2="401.499997317791" y2="117.49999970197678"/>
  <line x1="401.499997317791" y1="117.49999970197678" x2="401.499997317791" y2="226.99999910593033"/>
  <line x1="401.499997317791" y1="226.99999910593033" x2="123.49999970197678" y2="226.99999910593033"/>
  <line x1="123.49999970197678" y1="226.99999910593033" x2="123.49999970197678" y2="311.4999985098839"/>
  <circle cx="401.499997317791" cy="226.99999910593033" r="2" style="fill:#000"/>
  <circle cx="401.499997317791" cy="117.49999970197678" r="2" style="fill:#000"/>
  <line x1="123.49999970197678" y1="311.4999985098839" x2="147.33333273728687" y2="311.4999985098839"/>
  <line x1="531.4999964237213" y1="179.99999940395355" x2="548.9999961256981" y2="179.99999940395355"/>
  <line x1="548.9999961256981" y1="179.99999940395355" x2="548.9999961256981" y2="226.99999910593033"/>
  <line x1="548.9999961256981" y1="226.99999910593033" x2="332.99999791383743" y2="226.99999910593033"/>
  <line x1="332.99999791383743" y1="226.99999910593033" x2="332.99999791383743" y2="261.9999988079071"/>
  <circle cx="332.99999791383743" cy="226.99999910593033" r="2" style="fill:#000"/>
  <line x1="332.99999791383743" y1="261.9999988079071" x2="350.4999976158142" y2="261.9999988079071"/>
  <line x1="531.4999964237213" y1="179.99999940395355" x2="548.9999961256981" y2="179.99999940395355"/>
  <line x1="548.9999961256981" y1="179.99999940395355" x2="548.9999961256981" y2="117.49999970197678"/>
  <line x1="548.9999961256981" y1="117.49999970197678" x2="123.49999970197678" y2="117.49999970197678"/>
  <line x1="123.49999970197678" y1="117.49999970197678" x2="123.49999970197678" y2="73"/>
  <circle cx="548.9999961256981" cy="179.99999940395355" r="2" style="fill:#000"/>
  <line x1="123.49999970197678" y1="73" x2="147.33333273728687" y2="73"/>
  <line x1="531.4999964237213" y1="570.9999982118607" x2="566.4999958276749" y2="570.9999982118607"/>
  <line x1="531.4999964237213" y1="63" x2="566.4999958276749" y2="63"/>
  <line x1="531.4999964237213" y1="271.9999988079071" x2="566.4999958276749" y2="271.9999988079071"/>
  <line x1="371.4999976158142" y1="271.9999988079071" x2="388.999997317791" y2="271.9999988079071"/>
  <line x1="388.999997317791" y1="271.9999988079071" x2="388.999997317791" y2="240.49999910593033"/>
  <line x1="388.999997317791" y1="240.49999910593033" x2="470.49999672174454" y2="240.49999910593033"/>
  <line x1="470.49999672174454" y1="240.49999910593033" x2="470.49999672174454" y2="179.99999940395355"/>
  <circle cx="388.999997317791" cy="271.9999988079071" r="2" style="fill:#000"/>
  <line x1="470.49999672174454" y1="179.99999940395355" x2="500.4999964237213" y2="179.99999940395355"/>
  <line x1="371.4999976158142" y1="271.9999988079071" x2="421.99999701976776" y2="271.9999988079071"/>
  <line x1="247.16666547457376" y1="428.9999985098839" x2="266.9999985098839" y2="428.9999985098839"/>
  <line x1="266.9999985098839" y1="428.9999985098839" x2="266.9999985098839" y2="458.9999985098839"/>
  <line x1="266.9999985098839" y1="458.9999985098839" x2="296.99999821186066" y2="458.9999985098839"/>
  <line x1="247.16666547457376" y1="478.9999985098839" x2="296.99999821186066" y2="478.9999985098839"/>
  <line x1="247.16666547457376" y1="528.9999985098839" x2="266.9999985098839" y2="528.9999985098839"/>
  <line x1="266.9999985098839" y1="528.9999985098839" x2="266.9999985098839" y2="498.9999985098839"/>
  <line x1="266.9999985098839" y1="498.9999985098839" x2="296.99999821186066" y2="498.9999985098839"/>
  <line x1="452.99999701976776" y1="271.9999988079071" x2="500.4999964237213" y2="271.9999988079071"/>
  <line x1="170.33333273728687" y1="80.5" x2="235.83333214124045" y2="80.5"/>
  <line x1="81" y1="518.4999982118607" x2="110.99999970197678" y2="518.4999982118607"/>
  <line x1="110.99999970197678" y1="518.4999982118607" x2="110.99999970197678" y2="326.4999985098839"/>
  <line x1="110.99999970197678" y1="326.4999985098839" x2="147.33333273728687" y2="326.4999985098839"/>
  <line x1="171.99999940395355" y1="366.4999985098839" x2="201.99999910593033" y2="366.4999985098839"/>
  <line x1="201.99999910593033" y1="366.4999985098839" x2="201.99999910593033" y2="436.4999985098839"/>
  <line x1="201.99999910593033" y1="436.4999985098839" x2="224.16666547457376" y2="436.4999985098839"/>
  <line x1="171.99999940395355" y1="486.4999985098839" x2="224.16666547457376" y2="486.4999985098839"/>
  <line x1="171.99999940395355" y1="536.4999985098839" x2="224.16666547457376" y2="536.4999985098839"/>
  <line x1="81" y1="88" x2="147.33333273728687" y2="88"/>
  <line x1="302.99999821186066" y1="156.49999940395355" x2="320.49999791383743" y2="156.49999940395355"/>
  <line x1="320.49999791383743" y1="156.49999940395355" x2="320.49999791383743" y2="281.9999988079071"/>
  <line x1="320.49999791383743" y1="281.9999988079071" x2="350.4999976158142" y2="281.9999988079071"/>
  <line x1="302.99999821186066" y1="468.9999985098839" x2="360.9999976158142" y2="468.9999985098839"/>
  <line x1="360.9999976158142" y1="468.9999985098839" x2="360.9999976158142" y2="287.4999988079071"/>
  <line x1="155.99999940395355" y1="421.4999985098839" x2="224.16666547457376" y2="421.4999985098839"/>
  <line x1="155.99999940395355" y1="421.4999985098839" x2="189.49999910593033" y2="421.4999985098839"/>
  <line x1="189.49999910593033" y1="421.4999985098839" x2="189.49999910593033" y2="471.4999985098839"/>
  <circle cx="189.49999910593033" cy="421.4999985098839" r="2" style="fill:#000"/>
  <circle cx="189.49999910593033" cy="471.4999985098839" r="2" style="fill:#000"/>
  <line x1="189.49999910593033" y1="471.4999985098839" x2="224.16666547457376" y2="471.4999985098839"/>
  <line x1="155.99999940395355" y1="421.4999985098839" x2="189.49999910593033" y2="421.4999985098839"/>
  <line x1="189.49999910593033" y1="421.4999985098839" x2="189.49999910593033" y2="521.4999985098839"/>
  <line x1="189.49999910593033" y1="521.4999985098839" x2="224.16666547457376" y2="521.4999985098839"/>
  <line x1="240.83333214124045" y1="308.9999985098839" x2="388.999997317791" y2="308.9999985098839"/>
  <line x1="388.999997317791" y1="308.9999985098839" x2="388.999997317791" y2="578.4999982118607"/>
  <line x1="388.999997317791" y1="578.4999982118607" x2="420.3333303531011" y2="578.4999982118607"/>
  <line x1="240.83333214124045" y1="328.9999985098839" x2="266.9999985098839" y2="328.9999985098839"/>
  <line x1="266.9999985098839" y1="328.9999985098839" x2="266.9999985098839" y2="146.49999940395355"/>
  <line x1="266.9999985098839" y1="146.49999940395355" x2="296.99999821186066" y2="146.49999940395355"/>
  <line x1="240.83333214124045" y1="70.5" x2="420.3333303531011" y2="70.5"/>
  <line x1="240.83333214124045" y1="90.5" x2="279.4999985098839" y2="90.5"/>
  <line x1="279.4999985098839" y1="90.5" x2="279.4999985098839" y2="166.49999940395355"/>
  <line x1="279.4999985098839" y1="166.49999940395355" x2="296.99999821186066" y2="166.49999940395355"/>
</svg>
