<svg xmlns="http://www.w3.org/2000/svg" xmlns:xlink="http://www.w3.org/1999/xlink" xmlns:s="https://github.com/nturley/netlistsvg" width="673.9999966621399" height="604.4999985694885">
  <style>svg {
    stroke:#000;
    fill:none;
  }
  text {
    fill:#000;
    stroke:none;
    font-size:10px;
    font-weight: bold;
    font-family: "Courier New", monospace;
  }
  .nodelabel {
    text-anchor: middle;
  }
  .inputPortLabel {
    text-anchor: end;
  }
  .splitjoinBody {
    fill:#000;
  }</style>
  <g s:type="inputExt" transform="translate(421.9999976158142,179.99999952316284)" s:width="30" s:height="20">
    <text x="15" y="-4" class="nodelabel">clock</text>
    <s:alias val="$_inputExt_"/>
    <path d="M0,0 L0,20 L15,20 L30,10 L15,0 Z"/>
    <g s:x="28" s:y="10" s:pid="Y"/>
  </g>
  <g s:type="inputExt" transform="translate(208.99999904632568,168.99999952316284)" s:width="30" s:height="20">
    <text x="15" y="-4" class="nodelabel">data_in</text>
    <s:alias val="$_inputExt_"/>
    <path d="M0,0 L0,20 L15,20 L30,10 L15,0 Z"/>
    <g s:x="28" s:y="10" s:pid="Y"/>
  </g>
  <g s:type="inputExt" transform="translate(50,506.9999985694885)" s:width="30" s:height="20">
    <text x="15" y="-4" class="nodelabel">up</text>
    <s:alias val="$_inputExt_"/>
    <path d="M0,0 L0,20 L15,20 L30,10 L15,0 Z"/>
    <g s:x="28" s:y="10" s:pid="Y"/>
  </g>
  <g s:type="inputExt" transform="translate(50,368.4999988079071)" s:width="30" s:height="20">
    <text x="15" y="-4" class="nodelabel">down</text>
    <s:alias val="$_inputExt_"/>
    <path d="M0,0 L0,20 L15,20 L30,10 L15,0 Z"/>
    <g s:x="28" s:y="10" s:pid="Y"/>
  </g>
  <g s:type="outputExt" transform="translate(563.9999966621399,514.4999985694885)" s:width="30" s:height="20">
    <text x="15" y="-4" class="nodelabel">carry_out</text>
    <s:alias val="$_outputExt_"/>
    <path d="M30,0 L30,20 L15,20 L0,10 L15,0 Z"/>
    <g s:x="0" s:y="10" s:pid="A"/>
  </g>
  <g s:type="outputExt" transform="translate(563.9999966621399,52.5)" s:width="30" s:height="20">
    <text x="15" y="-4" class="nodelabel">borrow_out</text>
    <s:alias val="$_outputExt_"/>
    <path d="M30,0 L30,20 L15,20 L0,10 L15,0 Z"/>
    <g s:x="0" s:y="10" s:pid="A"/>
  </g>
  <g s:type="outputExt" transform="translate(563.9999966621399,159.99999952316284)" s:width="30" s:height="20">
    <text x="15" y="-4" class="nodelabel">count_out</text>
    <s:alias val="$_outputExt_"/>
    <path d="M30,0 L30,20 L15,20 L0,10 L15,0 Z"/>
    <g s:x="0" s:y="10" s:pid="A"/>
  </g>
  <g s:type="outputExt" transform="translate(563.9999966621399,242.49999904632568)" s:width="30" s:height="20">
    <text x="15" y="-4" class="nodelabel">parity_out</text>
    <s:alias val="$_outputExt_"/>
    <path d="M30,0 L30,20 L15,20 L0,10 L15,0 Z"/>
    <g s:x="0" s:y="10" s:pid="A"/>
  </g>
  <g s:type="add" transform="translate(143.33333285649616,283.4999988079071)" s:width="25" s:height="25">
    <s:alias val="$add"/>
    <circle r="12.5" cx="12.5" cy="12.5"/>
    <line x1="7.5" x2="17.5" y1="12.5" y2="12.5"/>
    <line x1="12.5" x2="12.5" y1="7.5" y2="17.5"/>
    <g s:x="3" s:y="5" s:pid="A"/>
    <g s:x="3" s:y="20" s:pid="B"/>
    <g s:x="25" s:y="12.5" s:pid="Y"/>
  </g>
  <g s:type="and" transform="translate(426.9999976158142,511.9999985694885)" s:width="30" s:height="25">
    <s:alias val="$and"/>
    <path d="M0,0 L0,25 L15,25 A15 12.5 0 0 0 15,0 Z"/>
    <g s:x="0" s:y="5" s:pid="A"/>
    <g s:x="0" s:y="20" s:pid="B"/>
    <g s:x="30" s:y="12.5" s:pid="Y"/>
  </g>
  <g s:type="and" transform="translate(426.9999976158142,50)" s:width="30" s:height="25">
    <s:alias val="$and"/>
    <path d="M0,0 L0,25 L15,25 A15 12.5 0 0 0 15,0 Z"/>
    <g s:x="0" s:y="5" s:pid="A"/>
    <g s:x="0" s:y="20" s:pid="B"/>
    <g s:x="30" s:y="12.5" s:pid="Y"/>
  </g>
  <g s:type="dff" transform="translate(504.99999713897705,159.99999952316284)" s:width="30" s:height="40">
    <s:alias val="$dff"/>
    <rect width="30" height="40" x="0" y="0"/>
    <path d="M0,35 L5,30 L0,25"/>
    <g s:x="30" s:y="10" s:pid="Q"/>
    <g s:x="0" s:y="30" s:pid="CLK"/>
    <g s:x="0" s:y="10" s:pid="D"/>
  </g>
  <g s:type="dff" transform="translate(504.99999713897705,514.4999985694885)" s:width="30" s:height="40">
    <s:alias val="$dff"/>
    <rect width="30" height="40" x="0" y="0"/>
    <path d="M0,35 L5,30 L0,25"/>
    <g s:x="30" s:y="10" s:pid="Q"/>
    <g s:x="0" s:y="30" s:pid="CLK"/>
    <g s:x="0" s:y="10" s:pid="D"/>
  </g>
  <g s:type="dff" transform="translate(504.99999713897705,52.5)" s:width="30" s:height="40">
    <s:alias val="$dff"/>
    <rect width="30" height="40" x="0" y="0"/>
    <path d="M0,35 L5,30 L0,25"/>
    <g s:x="30" s:y="10" s:pid="Q"/>
    <g s:x="0" s:y="30" s:pid="CLK"/>
    <g s:x="0" s:y="10" s:pid="D"/>
  </g>
  <g s:type="dff" transform="translate(504.99999713897705,242.49999904632568)" s:width="30" s:height="40">
    <s:alias val="$dff"/>
    <rect width="30" height="40" x="0" y="0"/>
    <path d="M0,35 L5,30 L0,25"/>
    <g s:x="30" s:y="10" s:pid="Q"/>
    <g s:x="0" s:y="30" s:pid="CLK"/>
    <g s:x="0" s:y="10" s:pid="D"/>
  </g>
  <g s:type="mux" transform="translate(362.99999809265137,232.49999904632568)" s:width="20" s:height="40">
    <s:alias val="$pmux"/>
    <s:alias val="$mux"/>
    <path d="M0,0 L20,10 L20,30 L0,40 Z"/>
    <g s:x="0" s:y="10" s:pid="A"/>
    <g s:x="0" s:y="30" s:pid="B"/>
    <g s:x="10" s:y="35" s:pid="S"/>
    <g s:x="20" s:y="20" s:pid="Y"/>
  </g>
  <g s:type="eq" transform="translate(217.66666571299234,383.4999988079071)" s:width="25" s:height="25">
    <s:alias val="$eq"/>
    <circle r="12.5" cx="12.5" cy="12.5"/>
    <line x1="7.5" x2="17.5" y1="10" y2="10"/>
    <line x1="7.5" x2="17.5" y1="15" y2="15"/>
    <g s:x="3" s:y="5" s:pid="A"/>
    <g s:x="3" s:y="20" s:pid="B"/>
    <g s:x="25" s:y="12.5" s:pid="Y"/>
  </g>
  <g s:type="eq" transform="translate(217.66666571299234,428.4999988079071)" s:width="25" s:height="25">
    <s:alias val="$eq"/>
    <circle r="12.5" cx="12.5" cy="12.5"/>
    <line x1="7.5" x2="17.5" y1="10" y2="10"/>
    <line x1="7.5" x2="17.5" y1="15" y2="15"/>
    <g s:x="3" s:y="5" s:pid="A"/>
    <g s:x="3" s:y="20" s:pid="B"/>
    <g s:x="25" s:y="12.5" s:pid="Y"/>
  </g>
  <g s:type="eq" transform="translate(217.66666571299234,473.4999988079071)" s:width="25" s:height="25">
    <s:alias val="$eq"/>
    <circle r="12.5" cx="12.5" cy="12.5"/>
    <line x1="7.5" x2="17.5" y1="10" y2="10"/>
    <line x1="7.5" x2="17.5" y1="15" y2="15"/>
    <g s:x="3" s:y="5" s:pid="A"/>
    <g s:x="3" s:y="20" s:pid="B"/>
    <g s:x="25" s:y="12.5" s:pid="Y"/>
  </g>
  <g s:type="reduce_xor" transform="translate(427.9999976158142,239.99999904632568)" s:width="33" s:height="25">
    <s:alias val="$reduce_xor"/>
    <path d="M3,0 A30 25 0 0 1 3,25 A30 25 0 0 0 33,12.5 A30 25 0 0 0 3,0"/>
    <path d="M0,0 A30 25 0 0 1 0,25"/>
    <g s:x="33" s:y="12.5" s:pid="Y"/>
    <g s:x="3" s:y="12.5" s:pid="A"/>
  </g>
  <g s:type="sub" transform="translate(143.33333285649616,67.5)" s:width="25" s:height="25">
    <s:alias val="$sub"/>
    <circle r="12.5" cx="12.5" cy="12.5"/>
    <line x1="7.5" x2="17.5" y1="12.5" y2="12.5"/>
    <g s:x="3" s:y="5" s:pid="A"/>
    <g s:x="3" s:y="20" s:pid="B"/>
    <g s:x="25" s:y="12.5" s:pid="Y"/>
  </g>
  <g s:type="constant" transform="translate(50,466.9999985694885)" s:width="30" s:height="20">
    <text x="15" y="-4" class="nodelabel">11</text>
    <s:alias val="$_constant_"/>
    <rect width="30" height="20"/>
    <g s:x="30" s:y="10" s:pid="Y"/>
  </g>
  <g s:type="constant" transform="translate(139.99999952316284,328.4999988079071)" s:width="30" s:height="20">
    <text x="15" y="-4" class="nodelabel">10</text>
    <s:alias val="$_constant_"/>
    <rect width="30" height="20"/>
    <g s:x="30" s:y="10" s:pid="Y"/>
  </g>
  <g s:type="constant" transform="translate(139.99999952316284,438.4999988079071)" s:width="30" s:height="20">
    <text x="15" y="-4" class="nodelabel">01</text>
    <s:alias val="$_constant_"/>
    <rect width="30" height="20"/>
    <g s:x="30" s:y="10" s:pid="Y"/>
  </g>
  <g s:type="constant" transform="translate(139.99999952316284,483.4999988079071)" s:width="30" s:height="20">
    <text x="15" y="-4" class="nodelabel">00</text>
    <s:alias val="$_constant_"/>
    <rect width="30" height="20"/>
    <g s:x="30" s:y="10" s:pid="Y"/>
  </g>
  <g s:type="constant" transform="translate(50,77.5)" s:width="30" s:height="20">
    <text x="15" y="-4" class="nodelabel">101</text>
    <s:alias val="$_constant_"/>
    <rect width="30" height="20"/>
    <g s:x="30" s:y="10" s:pid="Y"/>
  </g>
  <g s:type="join" transform="translate(318.9999985694885,128.99999952316284)" s:width="4" s:height="40">
    <rect width="5" height="60" class="splitjoinBody"/>
    <s:alias val="$_join_"/>
    <g s:x="5" s:y="20" s:pid="out"/>
    <g transform="translate(0,10)" s:x="0" s:y="10" s:pid="in0">
      <text x="-3" y="-4" class="inputPortLabel">0:8</text>
    </g>
    <g transform="translate(0,30)" s:x="0" s:y="10" s:pid="in0">
      <text x="-3" y="-4" class="inputPortLabel">9:17</text>
    </g>
    <g transform="translate(0,50)" s:x="0" s:y="10" s:pid="in0">
      <text x="-3" y="-4" class="inputPortLabel">18:26</text>
    </g>
  </g>
  <g s:type="join" transform="translate(314.2499985694885,410.9999988079071)" s:width="4" s:height="40">
    <rect width="5" height="60" class="splitjoinBody"/>
    <s:alias val="$_join_"/>
    <g s:x="5" s:y="20" s:pid="out"/>
    <g transform="translate(0,10)" s:x="0" s:y="10" s:pid="in0">
      <text x="-3" y="-4" class="inputPortLabel">0</text>
    </g>
    <g transform="translate(0,30)" s:x="0" s:y="10" s:pid="in0">
      <text x="-3" y="-4" class="inputPortLabel">1</text>
    </g>
    <g transform="translate(0,50)" s:x="0" s:y="10" s:pid="in0">
      <text x="-3" y="-4" class="inputPortLabel">2</text>
    </g>
  </g>
  <g s:type="join" transform="translate(151.99999952316284,368.4999988079071)" s:width="4" s:height="40">
    <rect width="5" height="40" class="splitjoinBody"/>
    <s:alias val="$_join_"/>
    <g s:x="5" s:y="20" s:pid="out"/>
    <g transform="translate(0,10)" s:x="0" s:y="10" s:pid="in0">
      <text x="-3" y="-4" class="inputPortLabel">0</text>
    </g>
    <g transform="translate(0,30)" s:x="0" s:y="10" s:pid="in0">
      <text x="-3" y="-4" class="inputPortLabel">1</text>
    </g>
  </g>
  <g s:type="split" transform="translate(232.66666571299234,275.9999988079071)" s:width="5" s:height="40">
    <rect width="5" height="40" class="splitjoinBody"/>
    <s:alias val="$_split_"/>
    <g s:x="0" s:y="20" s:pid="in"/>
    <g transform="translate(4,10)" s:x="4" s:y="10" s:pid="out0">
      <text x="5" y="-4">9</text>
    </g>
    <g transform="translate(4,30)" s:x="4" s:y="10" s:pid="out0">
      <text x="5" y="-4">0:8</text>
    </g>
  </g>
  <g s:type="split" transform="translate(232.66666571299234,60)" s:width="5" s:height="40">
    <rect width="5" height="40" class="splitjoinBody"/>
    <s:alias val="$_split_"/>
    <g s:x="0" s:y="20" s:pid="in"/>
    <g transform="translate(4,10)" s:x="4" s:y="10" s:pid="out0">
      <text x="5" y="-4">9</text>
    </g>
    <g transform="translate(4,30)" s:x="4" s:y="10" s:pid="out0">
      <text x="5" y="-4">0:8</text>
    </g>
  </g>
  <line x1="450.9999976158142" y1="190.49999952316284" x2="504.99999713897705" y2="190.49999952316284"/>
  <line x1="450.9999976158142" y1="190.49999952316284" x2="490.99999737739563" y2="190.49999952316284"/>
  <line x1="490.99999737739563" y1="190.49999952316284" x2="490.99999737739563" y2="544.9999985694885"/>
  <circle cx="490.99999737739563" cy="190.49999952316284" r="2" style="fill:#000"/>
  <line x1="490.99999737739563" y1="544.9999985694885" x2="504.99999713897705" y2="544.9999985694885"/>
  <line x1="450.9999976158142" y1="190.49999952316284" x2="490.99999737739563" y2="190.49999952316284"/>
  <line x1="490.99999737739563" y1="190.49999952316284" x2="490.99999737739563" y2="83"/>
  <line x1="490.99999737739563" y1="83" x2="504.99999713897705" y2="83"/>
  <line x1="450.9999976158142" y1="190.49999952316284" x2="490.99999737739563" y2="190.49999952316284"/>
  <line x1="490.99999737739563" y1="190.49999952316284" x2="490.99999737739563" y2="272.9999990463257"/>
  <circle cx="490.99999737739563" cy="272.9999990463257" r="2" style="fill:#000"/>
  <line x1="490.99999737739563" y1="272.9999990463257" x2="504.99999713897705" y2="272.9999990463257"/>
  <line x1="237.99999904632568" y1="179.49999952316284" x2="318.9999985694885" y2="179.49999952316284"/>
  <line x1="79" y1="517.4999985694885" x2="426.9999976158142" y2="517.4999985694885"/>
  <line x1="79" y1="517.4999985694885" x2="125.99999976158142" y2="517.4999985694885"/>
  <line x1="125.99999976158142" y1="517.4999985694885" x2="125.99999976158142" y2="398.9999988079071"/>
  <circle cx="125.99999976158142" cy="517.4999985694885" r="2" style="fill:#000"/>
  <line x1="125.99999976158142" y1="398.9999988079071" x2="151.99999952316284" y2="398.9999988079071"/>
  <line x1="79" y1="378.9999988079071" x2="105.99999976158142" y2="378.9999988079071"/>
  <line x1="105.99999976158142" y1="378.9999988079071" x2="105.99999976158142" y2="202.99999928474426"/>
  <line x1="105.99999976158142" y1="202.99999928474426" x2="397.9999978542328" y2="202.99999928474426"/>
  <line x1="397.9999978542328" y1="202.99999928474426" x2="397.9999978542328" y2="55.5"/>
  <circle cx="105.99999976158142" cy="378.9999988079071" r="2" style="fill:#000"/>
  <line x1="397.9999978542328" y1="55.5" x2="426.9999976158142" y2="55.5"/>
  <line x1="79" y1="378.9999988079071" x2="151.99999952316284" y2="378.9999988079071"/>
  <line x1="169.33333285649616" y1="296.4999988079071" x2="232.66666571299234" y2="296.4999988079071"/>
  <line x1="457.9999976158142" y1="524.9999985694885" x2="504.99999713897705" y2="524.9999985694885"/>
  <line x1="457.9999976158142" y1="63" x2="504.99999713897705" y2="63"/>
  <line x1="535.999997138977" y1="170.49999952316284" x2="563.9999966621399" y2="170.49999952316284"/>
  <line x1="535.999997138977" y1="170.49999952316284" x2="549.9999969005585" y2="170.49999952316284"/>
  <line x1="549.9999969005585" y1="170.49999952316284" x2="549.9999969005585" y2="113.99999976158142"/>
  <line x1="549.9999969005585" y1="113.99999976158142" x2="407.9999978542328" y2="113.99999976158142"/>
  <line x1="407.9999978542328" y1="113.99999976158142" x2="407.9999978542328" y2="213.99999928474426"/>
  <line x1="407.9999978542328" y1="213.99999928474426" x2="125.99999976158142" y2="213.99999928474426"/>
  <line x1="125.99999976158142" y1="213.99999928474426" x2="125.99999976158142" y2="288.9999988079071"/>
  <circle cx="407.9999978542328" cy="213.99999928474426" r="2" style="fill:#000"/>
  <circle cx="407.9999978542328" cy="113.99999976158142" r="2" style="fill:#000"/>
  <line x1="125.99999976158142" y1="288.9999988079071" x2="146.33333285649616" y2="288.9999988079071"/>
  <line x1="535.999997138977" y1="170.49999952316284" x2="549.9999969005585" y2="170.49999952316284"/>
  <line x1="549.9999969005585" y1="170.49999952316284" x2="549.9999969005585" y2="213.99999928474426"/>
  <line x1="549.9999969005585" y1="213.99999928474426" x2="348.99999833106995" y2="213.99999928474426"/>
  <line x1="348.99999833106995" y1="213.99999928474426" x2="348.99999833106995" y2="242.99999904632568"/>
  <circle cx="348.99999833106995" cy="213.99999928474426" r="2" style="fill:#000"/>
  <line x1="348.99999833106995" y1="242.99999904632568" x2="362.99999809265137" y2="242.99999904632568"/>
  <line x1="535.999997138977" y1="170.49999952316284" x2="549.9999969005585" y2="170.49999952316284"/>
  <line x1="549.9999969005585" y1="170.49999952316284" x2="549.9999969005585" y2="113.99999976158142"/>
  <line x1="549.9999969005585" y1="113.99999976158142" x2="125.99999976158142" y2="113.99999976158142"/>
  <line x1="125.99999976158142" y1="113.99999976158142" x2="125.99999976158142" y2="73"/>
  <circle cx="549.9999969005585" cy="170.49999952316284" r="2" style="fill:#000"/>
  <line x1="125.99999976158142" y1="73" x2="146.33333285649616" y2="73"/>
  <line x1="535.999997138977" y1="524.9999985694885" x2="563.9999966621399" y2="524.9999985694885"/>
  <line x1="535.999997138977" y1="63" x2="563.9999966621399" y2="63"/>
  <line x1="535.999997138977" y1="252.99999904632568" x2="563.9999966621399" y2="252.99999904632568"/>
  <line x1="383.99999809265137" y1="252.99999904632568" x2="397.9999978542328" y2="252.99999904632568"/>
  <line x1="397.9999978542328" y1="252.99999904632568" x2="397.9999978542328" y2="224.99999928474426"/>
  <line x1="397.9999978542328" y1="224.99999928474426" x2="480.99999737739563" y2="224.99999928474426"/>
  <line x1="480.99999737739563" y1="224.99999928474426" x2="480.99999737739563" y2="170.49999952316284"/>
  <circle cx="397.9999978542328" cy="252.99999904632568" r="2" style="fill:#000"/>
  <line x1="480.99999737739563" y1="170.49999952316284" x2="504.99999713897705" y2="170.49999952316284"/>
  <line x1="383.99999809265137" y1="252.99999904632568" x2="430.9999976158142" y2="252.99999904632568"/>
  <line x1="243.66666571299234" y1="396.4999988079071" x2="273.9999988079071" y2="396.4999988079071"/>
  <line x1="273.9999988079071" y1="396.4999988079071" x2="273.9999988079071" y2="421.4999988079071"/>
  <line x1="273.9999988079071" y1="421.4999988079071" x2="314.2499985694885" y2="421.4999988079071"/>
  <line x1="243.66666571299234" y1="441.4999988079071" x2="314.2499985694885" y2="441.4999988079071"/>
  <line x1="243.66666571299234" y1="486.4999988079071" x2="273.9999988079071" y2="486.4999988079071"/>
  <line x1="273.9999988079071" y1="486.4999988079071" x2="273.9999988079071" y2="461.4999988079071"/>
  <line x1="273.9999988079071" y1="461.4999988079071" x2="314.2499985694885" y2="461.4999988079071"/>
  <line x1="461.9999976158142" y1="252.99999904632568" x2="504.99999713897705" y2="252.99999904632568"/>
  <line x1="169.33333285649616" y1="80.5" x2="232.66666571299234" y2="80.5"/>
  <line x1="81" y1="477.4999985694885" x2="115.99999976158142" y2="477.4999985694885"/>
  <line x1="115.99999976158142" y1="477.4999985694885" x2="115.99999976158142" y2="303.9999988079071"/>
  <line x1="115.99999976158142" y1="303.9999988079071" x2="146.33333285649616" y2="303.9999988079071"/>
  <line x1="170.99999952316284" y1="338.9999988079071" x2="194.99999928474426" y2="338.9999988079071"/>
  <line x1="194.99999928474426" y1="338.9999988079071" x2="194.99999928474426" y2="403.9999988079071"/>
  <line x1="194.99999928474426" y1="403.9999988079071" x2="220.66666571299234" y2="403.9999988079071"/>
  <line x1="170.99999952316284" y1="448.9999988079071" x2="220.66666571299234" y2="448.9999988079071"/>
  <line x1="170.99999952316284" y1="493.9999988079071" x2="220.66666571299234" y2="493.9999988079071"/>
  <line x1="81" y1="88" x2="146.33333285649616" y2="88"/>
  <line x1="324.9999985694885" y1="149.49999952316284" x2="338.99999833106995" y2="149.49999952316284"/>
  <line x1="338.99999833106995" y1="149.49999952316284" x2="338.99999833106995" y2="262.9999990463257"/>
  <line x1="338.99999833106995" y1="262.9999990463257" x2="362.99999809265137" y2="262.9999990463257"/>
  <line x1="320.2499985694885" y1="431.4999988079071" x2="373.49999809265137" y2="431.4999988079071"/>
  <line x1="373.49999809265137" y1="431.4999988079071" x2="373.49999809265137" y2="268.4999990463257"/>
  <line x1="157.99999952316284" y1="388.9999988079071" x2="220.66666571299234" y2="388.9999988079071"/>
  <line x1="157.99999952316284" y1="388.9999988079071" x2="184.99999928474426" y2="388.9999988079071"/>
  <line x1="184.99999928474426" y1="388.9999988079071" x2="184.99999928474426" y2="433.9999988079071"/>
  <circle cx="184.99999928474426" cy="388.9999988079071" r="2" style="fill:#000"/>
  <circle cx="184.99999928474426" cy="433.9999988079071" r="2" style="fill:#000"/>
  <line x1="184.99999928474426" y1="433.9999988079071" x2="220.66666571299234" y2="433.9999988079071"/>
  <line x1="157.99999952316284" y1="388.9999988079071" x2="184.99999928474426" y2="388.9999988079071"/>
  <line x1="184.99999928474426" y1="388.9999988079071" x2="184.99999928474426" y2="478.9999988079071"/>
  <line x1="184.99999928474426" y1="478.9999988079071" x2="220.66666571299234" y2="478.9999988079071"/>
  <line x1="237.66666571299234" y1="286.4999988079071" x2="397.9999978542328" y2="286.4999988079071"/>
  <line x1="397.9999978542328" y1="286.4999988079071" x2="397.9999978542328" y2="532.4999985694885"/>
  <line x1="397.9999978542328" y1="532.4999985694885" x2="426.9999976158142" y2="532.4999985694885"/>
  <line x1="237.66666571299234" y1="306.4999988079071" x2="273.9999988079071" y2="306.4999988079071"/>
  <line x1="273.9999988079071" y1="306.4999988079071" x2="273.9999988079071" y2="139.49999952316284"/>
  <line x1="273.9999988079071" y1="139.49999952316284" x2="318.9999985694885" y2="139.49999952316284"/>
  <line x1="237.66666571299234" y1="70.5" x2="426.9999976158142" y2="70.5"/>
  <line x1="237.66666571299234" y1="90.5" x2="283.9999988079071" y2="90.5"/>
  <line x1="283.9999988079071" y1="90.5" x2="283.9999988079071" y2="159.49999952316284"/>
  <line x1="283.9999988079071" y1="159.49999952316284" x2="318.9999985694885" y2="159.49999952316284"/>
</svg>
