<svg xmlns="http://www.w3.org/2000/svg" xmlns:xlink="http://www.w3.org/1999/xlink" xmlns:s="https://github.com/nturley/netlistsvg" width="550" height="573.5">
  <style>svg {
    stroke:#000;
    fill:none;
  }
  text {
    fill:#000;
    stroke:none;
    font-size:10px;
    font-weight: bold;
    font-family: "Courier New", monospace;
  }
  .nodelabel {
    text-anchor: middle;
  }
  .inputPortLabel {
    text-anchor: end;
  }
  .splitjoinBody {
    fill:#000;
  }</style>
  <g s:type="add" transform="translate(85,244)" s:width="25" s:height="25" id="cell_$add$input.v:17$3">
    <s:alias val="$add"/>
    <circle r="12.5" cx="12.5" cy="12.5" fill="#ffffff" class="cell_$add$input.v:17$3"/>
    <line x1="7.5" x2="17.5" y1="12.5" y2="12.5" class="cell_$add$input.v:17$3"/>
    <line x1="12.5" x2="12.5" y1="7.5" y2="17.5" class="cell_$add$input.v:17$3"/>
    <g s:x="3" s:y="5" s:pid="A"/>
    <g s:x="3" s:y="20" s:pid="B"/>
    <g s:x="25" s:y="12.5" s:pid="Y"/>
  </g>
  <g s:type="and" transform="translate(346,226.5)" s:width="30" s:height="25" id="cell_$and$input.v:28$5">
    <s:alias val="$and"/>
    <s:alias val="$logic_and"/>
    <s:alias val="$_AND_"/>
    <path d="M0,0 L0,25 L15,25 A15 12.5 0 0 0 15,0 Z" fill="#ffffff" class="cell_$and$input.v:28$5"/>
    <g s:x="0" s:y="5" s:pid="A"/>
    <g s:x="0" s:y="20" s:pid="B"/>
    <g s:x="30" s:y="12.5" s:pid="Y"/>
  </g>
  <g s:type="and" transform="translate(346,75)" s:width="30" s:height="25" id="cell_$and$input.v:29$6">
    <s:alias val="$and"/>
    <s:alias val="$logic_and"/>
    <s:alias val="$_AND_"/>
    <path d="M0,0 L0,25 L15,25 A15 12.5 0 0 0 15,0 Z" fill="#ffffff" class="cell_$and$input.v:29$6"/>
    <g s:x="0" s:y="5" s:pid="A"/>
    <g s:x="0" s:y="20" s:pid="B"/>
    <g s:x="30" s:y="12.5" s:pid="Y"/>
  </g>
  <g s:type="dff" transform="translate(413,151.5)" s:width="30" s:height="40" id="cell_$procdff$40">
    <s:alias val="$dff"/>
    <s:alias val="$_DFF_"/>
    <s:alias val="$_DFF_P_"/>
    <rect width="30" height="40" x="0" y="0" fill="#ffffff" class="cell_$procdff$40"/>
    <path d="M0,35 L5,30 L0,25" class="cell_$procdff$40"/>
    <g s:x="30" s:y="10" s:pid="Q"/>
    <g s:x="0" s:y="30" s:pid="CLK"/>
    <g s:x="0" s:y="30" s:pid="C"/>
    <g s:x="0" s:y="10" s:pid="D"/>
  </g>
  <g s:type="dff" transform="translate(413,229)" s:width="30" s:height="40" id="cell_$procdff$41">
    <s:alias val="$dff"/>
    <s:alias val="$_DFF_"/>
    <s:alias val="$_DFF_P_"/>
    <rect width="30" height="40" x="0" y="0" fill="#ffffff" class="cell_$procdff$41"/>
    <path d="M0,35 L5,30 L0,25" class="cell_$procdff$41"/>
    <g s:x="30" s:y="10" s:pid="Q"/>
    <g s:x="0" s:y="30" s:pid="CLK"/>
    <g s:x="0" s:y="30" s:pid="C"/>
    <g s:x="0" s:y="10" s:pid="D"/>
  </g>
  <g s:type="dff" transform="translate(413,77.5)" s:width="30" s:height="40" id="cell_$procdff$42">
    <s:alias val="$dff"/>
    <s:alias val="$_DFF_"/>
    <s:alias val="$_DFF_P_"/>
    <rect width="30" height="40" x="0" y="0" fill="#ffffff" class="cell_$procdff$42"/>
    <path d="M0,35 L5,30 L0,25" class="cell_$procdff$42"/>
    <g s:x="30" s:y="10" s:pid="Q"/>
    <g s:x="0" s:y="30" s:pid="CLK"/>
    <g s:x="0" s:y="30" s:pid="C"/>
    <g s:x="0" s:y="10" s:pid="D"/>
  </g>
  <g s:type="dff" transform="translate(413,426.5)" s:width="30" s:height="40" id="cell_$procdff$43">
    <s:alias val="$dff"/>
    <s:alias val="$_DFF_"/>
    <s:alias val="$_DFF_P_"/>
    <rect width="30" height="40" x="0" y="0" fill="#ffffff" class="cell_$procdff$43"/>
    <path d="M0,35 L5,30 L0,25" class="cell_$procdff$43"/>
    <g s:x="30" s:y="10" s:pid="Q"/>
    <g s:x="0" s:y="30" s:pid="CLK"/>
    <g s:x="0" s:y="30" s:pid="C"/>
    <g s:x="0" s:y="10" s:pid="D"/>
  </g>
  <g s:type="mux" transform="translate(285,409)" s:width="20" s:height="40" id="cell_$procmux$36">
    <s:alias val="$pmux"/>
    <s:alias val="$mux"/>
    <s:alias val="$_MUX_"/>
    <path d="M0,0 L20,10 L20,30 L0,40 Z" fill="#ffffff" class="cell_$procmux$36"/>
    <g s:x="0" s:y="10" s:pid="A"/>
    <g s:x="0" s:y="30" s:pid="B"/>
    <g s:x="10" s:y="35" s:pid="S"/>
    <g s:x="20" s:y="20" s:pid="Y"/>
  </g>
  <g s:type="eq" transform="translate(153,386.5)" s:width="25" s:height="25" id="cell_$procmux$37_CMP0">
    <s:alias val="$eq"/>
    <circle r="12.5" cx="12.5" cy="12.5" fill="#ffffff" class="cell_$procmux$37_CMP0"/>
    <line x1="7.5" x2="17.5" y1="10" y2="10" class="cell_$procmux$37_CMP0"/>
    <line x1="7.5" x2="17.5" y1="15" y2="15" class="cell_$procmux$37_CMP0"/>
    <g s:x="3" s:y="5" s:pid="A"/>
    <g s:x="3" s:y="20" s:pid="B"/>
    <g s:x="25" s:y="12.5" s:pid="Y"/>
  </g>
  <g s:type="eq" transform="translate(153,446.5)" s:width="25" s:height="25" id="cell_$procmux$38_CMP0">
    <s:alias val="$eq"/>
    <circle r="12.5" cx="12.5" cy="12.5" fill="#ffffff" class="cell_$procmux$38_CMP0"/>
    <line x1="7.5" x2="17.5" y1="10" y2="10" class="cell_$procmux$38_CMP0"/>
    <line x1="7.5" x2="17.5" y1="15" y2="15" class="cell_$procmux$38_CMP0"/>
    <g s:x="3" s:y="5" s:pid="A"/>
    <g s:x="3" s:y="20" s:pid="B"/>
    <g s:x="25" s:y="12.5" s:pid="Y"/>
  </g>
  <g s:type="eq" transform="translate(153,511.5)" s:width="25" s:height="25" id="cell_$procmux$39_CMP0">
    <s:alias val="$eq"/>
    <circle r="12.5" cx="12.5" cy="12.5" fill="#ffffff" class="cell_$procmux$39_CMP0"/>
    <line x1="7.5" x2="17.5" y1="10" y2="10" class="cell_$procmux$39_CMP0"/>
    <line x1="7.5" x2="17.5" y1="15" y2="15" class="cell_$procmux$39_CMP0"/>
    <g s:x="3" s:y="5" s:pid="A"/>
    <g s:x="3" s:y="20" s:pid="B"/>
    <g s:x="25" s:y="12.5" s:pid="Y"/>
  </g>
  <g s:type="reduce_xor" transform="translate(345,424)" s:width="33" s:height="25" id="cell_$reduce_xor$input.v:27$4">
    <s:alias val="$xor"/>
    <s:alias val="$reduce_xor"/>
    <s:alias val="$_XOR_"/>
    <path d="M3,0 A30 25 0 0 1 3,25 A30 25 0 0 0 33,12.5 A30 25 0 0 0 3,0" fill="#ffffff" class="cell_$reduce_xor$input.v:27$4"/>
    <path d="M0,0 A30 25 0 0 1 0,25" class="cell_$reduce_xor$input.v:27$4"/>
    <g s:x="3" s:y="5" s:pid="A"/>
    <g s:x="3" s:y="20" s:pid="B"/>
    <g s:x="33" s:y="12.5" s:pid="Y"/>
  </g>
  <g s:type="sub" transform="translate(85,22)" s:width="25" s:height="25" id="cell_$sub$input.v:16$2">
    <s:alias val="$sub"/>
    <circle r="12.5" cx="12.5" cy="12.5" fill="#ffffff" class="cell_$sub$input.v:16$2"/>
    <line x1="7.5" x2="17.5" y1="12.5" y2="12.5" class="cell_$sub$input.v:16$2"/>
    <g s:x="3" s:y="5" s:pid="A"/>
    <g s:x="3" s:y="20" s:pid="B"/>
    <g s:x="25" s:y="12.5" s:pid="Y"/>
  </g>
  <g s:type="inputExt" transform="translate(348,171.5)" s:width="30" s:height="20" id="cell_clock">
    <text x="15" y="-4" class="nodelabel cell_clock" s:attribute="ref">clock</text>
    <s:alias val="$_inputExt_"/>
    <path d="M0,0 L0,20 L15,20 L30,10 L15,0 Z" fill="#ffffff" class="cell_clock"/>
    <g s:x="28" s:y="10" s:pid="Y"/>
  </g>
  <g s:type="inputExt" transform="translate(147,179)" s:width="30" s:height="20" id="cell_data_in">
    <text x="15" y="-4" class="nodelabel cell_data_in" s:attribute="ref">data_in</text>
    <s:alias val="$_inputExt_"/>
    <path d="M0,0 L0,20 L15,20 L30,10 L15,0 Z" fill="#ffffff" class="cell_data_in"/>
    <g s:x="28" s:y="10" s:pid="Y"/>
  </g>
  <g s:type="inputExt" transform="translate(12,541.5)" s:width="30" s:height="20" id="cell_up">
    <text x="15" y="-4" class="nodelabel cell_up" s:attribute="ref">up</text>
    <s:alias val="$_inputExt_"/>
    <path d="M0,0 L0,20 L15,20 L30,10 L15,0 Z" fill="#ffffff" class="cell_up"/>
    <g s:x="28" s:y="10" s:pid="Y"/>
  </g>
  <g s:type="inputExt" transform="translate(12,371.5)" s:width="30" s:height="20" id="cell_down">
    <text x="15" y="-4" class="nodelabel cell_down" s:attribute="ref">down</text>
    <s:alias val="$_inputExt_"/>
    <path d="M0,0 L0,20 L15,20 L30,10 L15,0 Z" fill="#ffffff" class="cell_down"/>
    <g s:x="28" s:y="10" s:pid="Y"/>
  </g>
  <g s:type="outputExt" transform="translate(478,229)" s:width="30" s:height="20" id="cell_carry_out">
    <text x="15" y="-4" class="nodelabel cell_carry_out" s:attribute="ref">carry_out</text>
    <s:alias val="$_outputExt_"/>
    <path d="M30,0 L30,20 L15,20 L0,10 L15,0 Z" fill="#ffffff" class="cell_carry_out"/>
    <g s:x="0" s:y="10" s:pid="A"/>
  </g>
  <g s:type="outputExt" transform="translate(478,77.5)" s:width="30" s:height="20" id="cell_borrow_out">
    <text x="15" y="-4" class="nodelabel cell_borrow_out" s:attribute="ref">borrow_out</text>
    <s:alias val="$_outputExt_"/>
    <path d="M30,0 L30,20 L15,20 L0,10 L15,0 Z" fill="#ffffff" class="cell_borrow_out"/>
    <g s:x="0" s:y="10" s:pid="A"/>
  </g>
  <g s:type="outputExt" transform="translate(478,151.5)" s:width="30" s:height="20" id="cell_count_out">
    <text x="15" y="-4" class="nodelabel cell_count_out" s:attribute="ref">count_out</text>
    <s:alias val="$_outputExt_"/>
    <path d="M30,0 L30,20 L15,20 L0,10 L15,0 Z" fill="#ffffff" class="cell_count_out"/>
    <g s:x="0" s:y="10" s:pid="A"/>
  </g>
  <g s:type="outputExt" transform="translate(478,426.5)" s:width="30" s:height="20" id="cell_parity_out">
    <text x="15" y="-4" class="nodelabel cell_parity_out" s:attribute="ref">parity_out</text>
    <s:alias val="$_outputExt_"/>
    <path d="M30,0 L30,20 L15,20 L0,10 L15,0 Z" fill="#ffffff" class="cell_parity_out"/>
    <g s:x="0" s:y="10" s:pid="A"/>
  </g>
  <g s:type="constant" transform="translate(12,476.5)" s:width="30" s:height="20" id="cell_11">
    <text x="15" y="-4" class="nodelabel cell_11" s:attribute="ref">11</text>
    <s:alias val="$_constant_"/>
    <rect width="30" height="20" fill="#ffffff" class="cell_11"/>
    <g s:x="30" s:y="10" s:pid="Y"/>
  </g>
  <g s:type="constant" transform="translate(82,314)" s:width="30" s:height="20" id="cell_10">
    <text x="15" y="-4" class="nodelabel cell_10" s:attribute="ref">10</text>
    <s:alias val="$_constant_"/>
    <rect width="30" height="20" fill="#ffffff" class="cell_10"/>
    <g s:x="30" s:y="10" s:pid="Y"/>
  </g>
  <g s:type="constant" transform="translate(82,456.5)" s:width="30" s:height="20" id="cell_01">
    <text x="15" y="-4" class="nodelabel cell_01" s:attribute="ref">01</text>
    <s:alias val="$_constant_"/>
    <rect width="30" height="20" fill="#ffffff" class="cell_01"/>
    <g s:x="30" s:y="10" s:pid="Y"/>
  </g>
  <g s:type="constant" transform="translate(82,521.5)" s:width="30" s:height="20" id="cell_00">
    <text x="15" y="-4" class="nodelabel cell_00" s:attribute="ref">00</text>
    <s:alias val="$_constant_"/>
    <rect width="30" height="20" fill="#ffffff" class="cell_00"/>
    <g s:x="30" s:y="10" s:pid="Y"/>
  </g>
  <g s:type="constant" transform="translate(12,32)" s:width="30" s:height="20" id="cell_101">
    <text x="15" y="-4" class="nodelabel cell_101" s:attribute="ref">101</text>
    <s:alias val="$_constant_"/>
    <rect width="30" height="20" fill="#ffffff" class="cell_101"/>
    <g s:x="30" s:y="10" s:pid="Y"/>
  </g>
  <g s:type="join" transform="translate(244,138.5)" s:width="5" s:height="40" id="cell_$join$,26,27,28,29,30,31,32,33,34,49,50,51,52,53,54,55,56,57,3,4,5,6,7,8,9,10,11,">
    <rect width="5" height="60" class="splitjoinBody" s:generic="body"/>
    <s:alias val="$_join_"/>
    <g s:x="5" s:y="20" s:pid="out"/>
    <g transform="translate(-1,10)" s:x="-1" s:y="10" s:pid="in0">
      <text x="-3" y="-4" class="inputPortLabel">0:8</text>
    </g>
    <g transform="translate(-1,30)" s:x="-1" s:y="10" s:pid="in0">
      <text x="-3" y="-4" class="inputPortLabel">9:17</text>
    </g>
    <g transform="translate(-1,50)" s:x="-1" s:y="10" s:pid="in0">
      <text x="-3" y="-4" class="inputPortLabel">18:26</text>
    </g>
  </g>
  <g s:type="join" transform="translate(239.25,428.5)" s:width="5" s:height="40" id="cell_$join$,58,59,60,">
    <rect width="5" height="60" class="splitjoinBody" s:generic="body"/>
    <s:alias val="$_join_"/>
    <g s:x="5" s:y="20" s:pid="out"/>
    <g transform="translate(-1,10)" s:x="-1" s:y="10" s:pid="in0">
      <text x="-3" y="-4" class="inputPortLabel">0</text>
    </g>
    <g transform="translate(-1,30)" s:x="-1" s:y="10" s:pid="in0">
      <text x="-3" y="-4" class="inputPortLabel">1</text>
    </g>
    <g transform="translate(-1,50)" s:x="-1" s:y="10" s:pid="in0">
      <text x="-3" y="-4" class="inputPortLabel">2</text>
    </g>
  </g>
  <g s:type="join" transform="translate(93,371)" s:width="5" s:height="40" id="cell_$join$,13,12,">
    <rect width="5" height="40" class="splitjoinBody" s:generic="body"/>
    <s:alias val="$_join_"/>
    <g s:x="5" s:y="20" s:pid="out"/>
    <g transform="translate(-1,10)" s:x="-1" s:y="10" s:pid="in0">
      <text x="-3" y="-4" class="inputPortLabel">0</text>
    </g>
    <g transform="translate(-1,30)" s:x="-1" s:y="10" s:pid="in0">
      <text x="-3" y="-4" class="inputPortLabel">1</text>
    </g>
  </g>
  <g s:type="split" transform="translate(167.66666666666666,236)" s:width="5" s:height="40" id="cell_$split$,26,27,28,29,30,31,32,33,34,35,">
    <rect width="5" height="40" class="splitjoinBody" s:generic="body"/>
    <s:alias val="$_split_"/>
    <g s:x="-1" s:y="20" s:pid="in"/>
    <g transform="translate(5,10)" s:x="5" s:y="10" s:pid="out0">
      <text x="5" y="-4">9</text>
    </g>
    <g transform="translate(5,30)" s:x="5" s:y="10" s:pid="out0">
      <text x="5" y="-4">0:8</text>
    </g>
  </g>
  <g s:type="split" transform="translate(167.66666666666666,14)" s:width="5" s:height="40" id="cell_$split$,49,50,51,52,53,54,55,56,57,37,">
    <rect width="5" height="40" class="splitjoinBody" s:generic="body"/>
    <s:alias val="$_split_"/>
    <g s:x="-1" s:y="20" s:pid="in"/>
    <g transform="translate(5,10)" s:x="5" s:y="10" s:pid="out0">
      <text x="5" y="-4">9</text>
    </g>
    <g transform="translate(5,30)" s:x="5" s:y="10" s:pid="out0">
      <text x="5" y="-4">0:8</text>
    </g>
  </g>
  <line x1="443" x2="453" y1="161.5" y2="161.5" class="net_16,17,18,19,20,21,22,23,24"/>
  <line x1="453" x2="453" y1="161.5" y2="127.5" class="net_16,17,18,19,20,21,22,23,24"/>
  <line x1="453" x2="72" y1="127.5" y2="127.5" class="net_16,17,18,19,20,21,22,23,24"/>
  <line x1="72" x2="72" y1="127.5" y2="249" class="net_16,17,18,19,20,21,22,23,24"/>
  <circle cx="453" cy="127.5" r="2" style="fill:#000" class="net_16,17,18,19,20,21,22,23,24"/>
  <line x1="72" x2="88" y1="249" y2="249" class="net_16,17,18,19,20,21,22,23,24"/>
  <line x1="443" x2="453" y1="161.5" y2="161.5" class="net_16,17,18,19,20,21,22,23,24"/>
  <line x1="453" x2="453" y1="161.5" y2="127.5" class="net_16,17,18,19,20,21,22,23,24"/>
  <line x1="453" x2="315" y1="127.5" y2="127.5" class="net_16,17,18,19,20,21,22,23,24"/>
  <line x1="315" x2="315" y1="127.5" y2="399" class="net_16,17,18,19,20,21,22,23,24"/>
  <line x1="315" x2="270" y1="399" y2="399" class="net_16,17,18,19,20,21,22,23,24"/>
  <line x1="270" x2="270" y1="399" y2="419" class="net_16,17,18,19,20,21,22,23,24"/>
  <circle cx="315" cy="127.5" r="2" style="fill:#000" class="net_16,17,18,19,20,21,22,23,24"/>
  <line x1="270" x2="285" y1="419" y2="419" class="net_16,17,18,19,20,21,22,23,24"/>
  <line x1="443" x2="453" y1="161.5" y2="161.5" class="net_16,17,18,19,20,21,22,23,24"/>
  <line x1="453" x2="453" y1="161.5" y2="64" class="net_16,17,18,19,20,21,22,23,24"/>
  <line x1="453" x2="72" y1="64" y2="64" class="net_16,17,18,19,20,21,22,23,24"/>
  <line x1="72" x2="72" y1="64" y2="27" class="net_16,17,18,19,20,21,22,23,24"/>
  <circle cx="453" cy="161.5" r="2" style="fill:#000" class="net_16,17,18,19,20,21,22,23,24"/>
  <line x1="72" x2="88" y1="27" y2="27" class="net_16,17,18,19,20,21,22,23,24"/>
  <line x1="443" x2="478" y1="161.5" y2="161.5" class="net_16,17,18,19,20,21,22,23,24"/>
  <line x1="42" x2="62" y1="486.5" y2="486.5" class="net_61,62"/>
  <line x1="62" x2="62" y1="486.5" y2="264" class="net_61,62"/>
  <line x1="62" x2="88" y1="264" y2="264" class="net_61,62"/>
  <line x1="40" x2="335" y1="551.5" y2="551.5" class="net_12"/>
  <line x1="335" x2="335" y1="551.5" y2="231.5" class="net_12"/>
  <line x1="335" x2="346" y1="231.5" y2="231.5" class="net_12"/>
  <line x1="40" x2="72" y1="551.5" y2="551.5" class="net_12"/>
  <line x1="72" x2="72" y1="551.5" y2="401.5" class="net_12"/>
  <circle cx="72" cy="551.5" r="2" style="fill:#000" class="net_12"/>
  <line x1="72" x2="92" y1="401.5" y2="401.5" class="net_12"/>
  <line x1="173.66666666666666" x2="346" y1="246.5" y2="246.5" class="net_35"/>
  <line x1="40" x2="52" y1="381.5" y2="381.5" class="net_13"/>
  <line x1="52" x2="52" y1="381.5" y2="80" class="net_13"/>
  <circle cx="52" cy="381.5" r="2" style="fill:#000" class="net_13"/>
  <line x1="52" x2="346" y1="80" y2="80" class="net_13"/>
  <line x1="40" x2="92" y1="381.5" y2="381.5" class="net_13"/>
  <line x1="173.66666666666666" x2="315" y1="24.5" y2="24.5" class="net_37"/>
  <line x1="315" x2="315" y1="24.5" y2="95" class="net_37"/>
  <line x1="315" x2="346" y1="95" y2="95" class="net_37"/>
  <line x1="376" x2="413" y1="181.5" y2="181.5" class="net_2"/>
  <line x1="376" x2="388" y1="181.5" y2="181.5" class="net_2"/>
  <line x1="388" x2="388" y1="181.5" y2="259" class="net_2"/>
  <circle cx="388" cy="181.5" r="2" style="fill:#000" class="net_2"/>
  <circle cx="388" cy="259" r="2" style="fill:#000" class="net_2"/>
  <line x1="388" x2="413" y1="259" y2="259" class="net_2"/>
  <line x1="376" x2="388" y1="181.5" y2="181.5" class="net_2"/>
  <line x1="388" x2="388" y1="181.5" y2="107.5" class="net_2"/>
  <line x1="388" x2="413" y1="107.5" y2="107.5" class="net_2"/>
  <line x1="376" x2="388" y1="181.5" y2="181.5" class="net_2"/>
  <line x1="388" x2="388" y1="181.5" y2="456.5" class="net_2"/>
  <line x1="388" x2="413" y1="456.5" y2="456.5" class="net_2"/>
  <line x1="305" x2="325" y1="429" y2="429" class="net_39,40,41,42,43,44,45,46,47"/>
  <line x1="325" x2="325" y1="429" y2="150.5" class="net_39,40,41,42,43,44,45,46,47"/>
  <line x1="325" x2="398" y1="150.5" y2="150.5" class="net_39,40,41,42,43,44,45,46,47"/>
  <line x1="398" x2="398" y1="150.5" y2="161.5" class="net_39,40,41,42,43,44,45,46,47"/>
  <circle cx="325" cy="429" r="2" style="fill:#000" class="net_39,40,41,42,43,44,45,46,47"/>
  <line x1="398" x2="413" y1="161.5" y2="161.5" class="net_39,40,41,42,43,44,45,46,47"/>
  <line x1="305" x2="348" y1="429" y2="429" class="net_39,40,41,42,43,44,45,46,47"/>
  <line x1="376" x2="413" y1="239" y2="239" class="net_36"/>
  <line x1="376" x2="413" y1="87.5" y2="87.5" class="net_38"/>
  <line x1="378" x2="413" y1="436.5" y2="436.5" class="net_48"/>
  <line x1="250" x2="260" y1="169" y2="169" class="net_26,27,28,29,30,31,32,33,34,49,50,51,52,53,54,55,56,57,3,4,5,6,7,8,9,10,11"/>
  <line x1="260" x2="260" y1="169" y2="439" class="net_26,27,28,29,30,31,32,33,34,49,50,51,52,53,54,55,56,57,3,4,5,6,7,8,9,10,11"/>
  <line x1="260" x2="285" y1="439" y2="439" class="net_26,27,28,29,30,31,32,33,34,49,50,51,52,53,54,55,56,57,3,4,5,6,7,8,9,10,11"/>
  <line x1="245.25" x2="295" y1="459" y2="459" class="net_58,59,60"/>
  <line x1="295" x2="295" y1="459" y2="444" class="net_58,59,60"/>
  <line x1="99" x2="156" y1="391.5" y2="391.5" class="net_13,12"/>
  <line x1="99" x2="122" y1="391.5" y2="391.5" class="net_13,12"/>
  <line x1="122" x2="122" y1="391.5" y2="451.5" class="net_13,12"/>
  <circle cx="122" cy="391.5" r="2" style="fill:#000" class="net_13,12"/>
  <circle cx="122" cy="451.5" r="2" style="fill:#000" class="net_13,12"/>
  <line x1="122" x2="156" y1="451.5" y2="451.5" class="net_13,12"/>
  <line x1="99" x2="122" y1="391.5" y2="391.5" class="net_13,12"/>
  <line x1="122" x2="122" y1="391.5" y2="516.5" class="net_13,12"/>
  <line x1="122" x2="156" y1="516.5" y2="516.5" class="net_13,12"/>
  <line x1="112" x2="132" y1="324" y2="324" class="net_63,64"/>
  <line x1="132" x2="132" y1="324" y2="406.5" class="net_63,64"/>
  <line x1="132" x2="156" y1="406.5" y2="406.5" class="net_63,64"/>
  <line x1="112" x2="156" y1="466.5" y2="466.5" class="net_65,66"/>
  <line x1="112" x2="156" y1="531.5" y2="531.5" class="net_67,68"/>
  <line x1="42" x2="88" y1="42" y2="42" class="net_69,70,71"/>
  <line x1="443" x2="478" y1="239" y2="239" class="net_14"/>
  <line x1="443" x2="478" y1="87.5" y2="87.5" class="net_15"/>
  <line x1="443" x2="478" y1="436.5" y2="436.5" class="net_25"/>
  <line x1="173.66666666666666" x2="199" y1="266.5" y2="266.5" class="net_26,27,28,29,30,31,32,33,34"/>
  <line x1="199" x2="199" y1="266.5" y2="149" class="net_26,27,28,29,30,31,32,33,34"/>
  <line x1="199" x2="243" y1="149" y2="149" class="net_26,27,28,29,30,31,32,33,34"/>
  <line x1="173.66666666666666" x2="209" y1="44.5" y2="44.5" class="net_49,50,51,52,53,54,55,56,57"/>
  <line x1="209" x2="209" y1="44.5" y2="169" class="net_49,50,51,52,53,54,55,56,57"/>
  <line x1="209" x2="243" y1="169" y2="169" class="net_49,50,51,52,53,54,55,56,57"/>
  <line x1="175" x2="243" y1="189" y2="189" class="net_3,4,5,6,7,8,9,10,11"/>
  <line x1="178" x2="199" y1="399" y2="399" class="net_58"/>
  <line x1="199" x2="199" y1="399" y2="439" class="net_58"/>
  <line x1="199" x2="238.25" y1="439" y2="439" class="net_58"/>
  <line x1="178" x2="238.25" y1="459" y2="459" class="net_59"/>
  <line x1="178" x2="199" y1="524" y2="524" class="net_60"/>
  <line x1="199" x2="199" y1="524" y2="479" class="net_60"/>
  <line x1="199" x2="238.25" y1="479" y2="479" class="net_60"/>
  <line x1="110" x2="166.66666666666666" y1="256.5" y2="256.5" class="net_26,27,28,29,30,31,32,33,34,35"/>
  <line x1="110" x2="166.66666666666666" y1="34.5" y2="34.5" class="net_49,50,51,52,53,54,55,56,57,37"/>
</svg>
