<svg  xmlns="http://www.w3.org/2000/svg"
  xmlns:xlink="http://www.w3.org/1999/xlink"
  xmlns:s="https://github.com/nturley/netlistsvg">
  <s:properties
    spacing="20"
    borderSpacing="50"
    direction="DOWN"
  >
    <s:low_priority_alias val="$dff" />
  </s:properties>
<style>
svg {
  stroke:#000;
  fill:none;
}
text {
  fill:#000;
  stroke:none;
  font-size:10px;
  font-weight: bold;
  font-family: "Courier New", monospace;
}
.nodelabel {
  text-anchor: middle;
}
.inputPortLabel {
  text-anchor: end;
}
.splitjoinBody {
  fill:#000;
}
</style>

  <g s:type="vcc" transform="translate(50,50)" s:width="20" s:height="30">
    <s:alias val="vcc"/>
    <text x="10" y="-4" class="nodelabel">VCC</text>
    <path d="M0,0 L20,0 L10,15 Z"/>
    <line x2="10" y2="15" x1="10" y1="30"/>
    <g s:x="10" s:y="30" s:pid="A"/>
  </g>

  <g s:type="gnd" transform="translate(150,50)" s:width="20" s:height="30">
    <s:alias val="gnd"/>
    <line x2="10" y2="0" x1="10" y1="20"/>
    <line x2="0" y2="20" x1="20" y1="20"/>
    <line x2="3" y2="25" x1="17" y1="25"/>
    <line x2="7" y2="30" x1="13" y1="30"/>
    <g s:x="10" s:y="0" s:pid="A"/>
  </g>

  <g s:type="resistor_h" transform="translate(250,50)" s:width="61" s:height="24">
    <s:alias val="res_h"/>
    <path d="M0,10 L15,10 L18,0 L24,20 L30,0 L36,20 L42,0 L48,20 L52,10 L61,10"/>
    <g s:x="0" s:y="10" s:pid="A"/>
    <g s:x="61" s:y="10" s:pid="B"/>
  </g>

  <g s:type="resistor_v" transform="translate(350,50)" s:width="24" s:height="61">
    <s:alias val="res_v"/>
    <path d="M10,0 L10,15 L0,18 L20,24 L0,30 L20,36 L0,42 L20,48 L10,52 L10,61"/>
    <g s:x="10" s:y="0" s:pid="A"/>
    <g s:x="10" s:y="61" s:pid="B"/>
  </g>

  <g s:type="capacitor_v" transform="translate(450,50)" s:width="30" s:height="50">
    <s:alias val="cap_v"/>
    <path d="M15,0 L15,20 M0,20 L30,20 M0,30 L30,30 M15,30 L15,50"/>
    <g s:x="15" s:y="0" s:pid="A"/>
    <g s:x="15" s:y="50" s:pid="B"/>
  </g>

  <g s:type="inputExt" transform="translate(50,200)" s:width="30" s:height="20">
    <text x="15" y="-4" class="nodelabel">input</text>
    <s:alias val="$_inputExt_"/>
    <path d="M0,0 L0,20 L15,20 L30,10 L15,0 Z" />
    <g s:x="28" s:y="10" s:pid="Y"/>
  </g>

  <g s:type="constant" transform="translate(150,200)" s:width="30" s:height="20">
    <text x="15" y="-4" class="nodelabel">constant</text>

    <s:alias val="$_constant_"/>
    <rect width="30" height="20" />

    <g s:x="30" s:y="10" s:pid="Y"/>
  </g>

  <g s:type="outputExt" transform="translate(250,200)" s:width="30" s:height="20">
    <text x="15" y="-4" class="nodelabel">output</text>
    <s:alias val="$_outputExt_"/>
    <path d="M30,0 L30,20 L15,20 L0,10 L15,0 Z" />

    <g s:x="0" s:y="10" s:pid="A"/>
  </g>

  <g s:type="split" transform="translate(350,200)" s:width="5" s:height="40">
    <rect width="5" height="40" class="splitjoinBody"/>
    <s:alias val="$_split_"/>

    <g s:x="0" s:y="20" s:pid="in"/>
    <g transform="translate(5, 10)" s:x="4" s:y="10" s:pid="out0">
      <text x="5" y="-4" >hi:lo</text>
    </g>
    <g transform="translate(5, 30)" s:x="4" s:y="30" s:pid="out1">
      <text x="5" y="-4" >hi:lo</text>
    </g>
  </g>

  <g s:type="join" transform="translate(450,200)" s:width="4" s:height="40">
    <rect width="5" height="40" class="splitjoinBody"/>
    <s:alias val="$_join_"/>
    <g s:x="5" s:y="20"  s:pid="out"/>
    <g transform="translate(0, 10)" s:x="0" s:y="10" s:pid="in0">
      <text x="-3" y="-4" class="inputPortLabel">hi:lo</text>
    </g>
    <g transform="translate(0, 30)" s:x="0" s:y="30" s:pid="in1">
      <text x="-3" y="-4" class="inputPortLabel">hi:lo</text>
    </g>
  </g>

  <g s:type="generic" transform="translate(550,200)" s:width="30" s:height="40">
    <text x="15" y="-4" class="nodelabel">generic</text>
    <rect width="30" height="40" />

    <g transform="translate(30, 10)" s:x="30" s:y="10" s:pid="out0">
      <text x="5" y="-4" style="fill:#000; stroke:none">out0</text>
    </g>
    <g transform="translate(30, 30)" s:x="30" s:y="30" s:pid="out1">
      <text x="5" y="-4" style="fill:#000;stroke:none">out1</text>
    </g>
    <g transform="translate(0, 10)" s:x="0" s:y="10" s:pid="in0">
      <text x="-3" y="-4" class="inputPortLabel">in0</text>
    </g>
    <g transform="translate(0, 30)" s:x="0" s:y="30" s:pid="in1">
      <text x="-3" y="-4" class="inputPortLabel">in1</text>
    </g>
  </g>

</svg>
